<svg version="1.1" viewBox="0.0 0.0 1152.6719160104988 543.5695538057743" fill="none" stroke="none" stroke-linecap="square" stroke-miterlimit="10" xmlns:xlink="http://www.w3.org/1999/xlink" xmlns="http://www.w3.org/2000/svg"><clipPath id="p.0"><path d="m0 0l1152.6719 0l0 543.5696l-1152.6719 0l0 -543.5696z" clip-rule="nonzero"/></clipPath><g clip-path="url(#p.0)"><path fill="#000000" fill-opacity="0.0" d="m0 0l1152.6719 0l0 543.5696l-1152.6719 0z" fill-rule="evenodd"/><path fill="#ffcb09" d="m31.086615 24.362206l303.2756 0l0 115.11811l-303.2756 0z" fill-rule="evenodd"/><path stroke="#ffffff" stroke-width="2.0" stroke-linejoin="round" stroke-linecap="butt" d="m31.086615 24.362206l303.2756 0l0 115.11811l-303.2756 0z" fill-rule="evenodd"/><path fill="#000000" d="m70.86442 92.58126l0 -21.0l4.25 0l0 9.328125l8.5625 -9.328125l5.6875 0l-7.90625 8.1875l8.34375 12.8125l-5.484375 0l-5.78125 -9.859375l-3.421875 3.515625l0 6.34375l-4.25 0zm20.27359 -10.375q0 -3.203125 0.953125 -5.375q0.71875 -1.609375 1.953125 -2.875q1.234375 -1.28125 2.71875 -1.890625q1.953125 -0.84375 4.515625 -0.84375q4.640625 0 7.421875 2.890625q2.796875 2.875 2.796875 8.0q0 5.078125 -2.765625 7.953125q-2.765625 2.875 -7.390625 2.875q-4.6875 0 -7.453125 -2.859375q-2.75 -2.859375 -2.75 -7.875zm4.359375 -0.140625q0 3.5625 1.640625 5.40625q1.65625 1.84375 4.1875 1.84375q2.53125 0 4.15625 -1.828125q1.625 -1.828125 1.625 -5.46875q0 -3.609375 -1.578125 -5.390625q-1.578125 -1.78125 -4.203125 -1.78125q-2.625 0 -4.234375 1.796875q-1.59375 1.796875 -1.59375 5.421875zm19.312363 10.515625l0 -21.0l8.921875 0q3.375 0 4.8906174 0.578125q1.53125 0.5625 2.4375 2.015625q0.921875 1.4375 0.921875 3.296875q0 2.359375 -1.390625 3.90625q-1.375 1.53125 -4.1406174 1.9375q1.375 0.796875 2.2656174 1.765625q0.890625 0.953125 2.40625 3.40625l2.5625 4.09375l-5.0625 0l-3.0624924 -4.5625q-1.640625 -2.453125 -2.25 -3.09375q-0.59375 -0.640625 -1.265625 -0.875q-0.671875 -0.234375 -2.125 -0.234375l-0.859375 0l0 8.765625l-4.25 0zm4.25 -12.109375l3.125 0q3.0625 0 3.8125 -0.25q0.765625 -0.265625 1.1875 -0.890625q0.4375 -0.640625 0.4375 -1.578125q0 -1.0625 -0.578125 -1.71875q-0.5625 -0.65625 -1.59375 -0.828125q-0.515625 -0.0625 -3.09375 -0.0625l-3.296875 0l0 5.328125zm16.929832 12.109375l0 -21.0l15.5625 0l0 3.5625l-11.328125 0l0 4.65625l10.53125 0l0 3.53125l-10.53125 0l0 5.71875l11.71875 0l0 3.53125l-15.953125 0zm27.694305 -21.0l7.734375 0q2.625 0 4.0 0.40625q1.84375 0.546875 3.15625 1.9375q1.328125 1.390625 2.015625 3.40625q0.6875 2.0 0.6875 4.953125q0 2.59375 -0.640625 4.46875q-0.796875 2.296875 -2.25 3.703125q-1.109375 1.078125 -2.984375 1.6875q-1.40625 0.4375 -3.75 0.4375l-7.96875 0l0 -21.0zm4.234375 3.5625l0 13.90625l3.15625 0q1.78125 0 2.578125 -0.203125q1.03125 -0.265625 1.703125 -0.875q0.6875 -0.625 1.109375 -2.03125q0.4375 -1.40625 0.4375 -3.84375q0 -2.4375 -0.4375 -3.734375q-0.421875 -1.296875 -1.203125 -2.03125q-0.765625 -0.734375 -1.953125 -0.984375q-0.890625 -0.203125 -3.484375 -0.203125l-1.90625 0zm25.726715 12.59375l4.015625 0.671875q-0.765625 2.203125 -2.4375 3.359375q-1.671875 1.15625 -4.171875 1.15625q-3.96875 0 -5.875 -2.59375q-1.5 -2.078125 -1.5 -5.234375q0 -3.78125 1.96875 -5.921875q1.984375 -2.140625 5.0 -2.140625q3.390625 0 5.34375 2.25q1.96875 2.234375 1.890625 6.859375l-10.078125 0q0.03125 1.78125 0.953125 2.78125q0.9375 1.0 2.328125 1.0q0.953125 0 1.59375 -0.515625q0.640625 -0.515625 0.96875 -1.671875zm0.234375 -4.0625q-0.046875 -1.75 -0.90625 -2.65625q-0.859375 -0.90625 -2.09375 -0.90625q-1.3125 0 -2.171875 0.953125q-0.859375 0.96875 -0.84375 2.609375l6.015625 0zm5.514038 -6.296875l2.234375 0l0 -1.15625q0 -1.90625 0.40625 -2.84375q0.40625 -0.953125 1.5 -1.546875q1.09375 -0.609375 2.78125 -0.609375q1.71875 0 3.359375 0.515625l-0.546875 2.8125q-0.953125 -0.234375 -1.84375 -0.234375q-0.875 0 -1.25 0.421875q-0.375 0.40625 -0.375 1.5625l0 1.078125l3.0 0l0 3.15625l-3.0 0l0 12.046875l-4.03125 0l0 -12.046875l-2.234375 0l0 -3.15625zm11.53212 -2.0625l0 -3.734375l4.015625 0l0 3.734375l-4.015625 0zm0 17.265625l0 -15.203125l4.015625 0l0 15.203125l-4.015625 0zm21.976425 0l-4.015625 0l0 -7.765625q0 -2.453125 -0.265625 -3.171875q-0.25 -0.734375 -0.84375 -1.125q-0.578125 -0.40625 -1.390625 -0.40625q-1.046875 0 -1.875 0.578125q-0.828125 0.5625 -1.140625 1.515625q-0.3125 0.9375 -0.3125 3.484375l0 6.890625l-4.015625 0l0 -15.203125l3.734375 0l0 2.234375q1.984375 -2.578125 5.015625 -2.578125q1.328125 0 2.421875 0.484375q1.109375 0.46875 1.671875 1.21875q0.578125 0.734375 0.796875 1.6875q0.21875 0.9375 0.21875 2.703125l0 9.453125zm4.08667 -17.265625l0 -3.734375l4.015625 0l0 3.734375l-4.015625 0zm0 17.265625l0 -15.203125l4.015625 0l0 15.203125l-4.015625 0zm15.11705 -15.203125l0 3.203125l-2.75 0l0 6.125q0 1.859375 0.078125 2.171875q0.078125 0.3125 0.359375 0.515625q0.28125 0.1875 0.6875 0.1875q0.546875 0 1.609375 -0.375l0.34375 3.125q-1.40625 0.59375 -3.171875 0.59375q-1.09375 0 -1.96875 -0.359375q-0.875 -0.375 -1.28125 -0.953125q-0.40625 -0.578125 -0.5625 -1.5625q-0.125 -0.703125 -0.125 -2.84375l0 -6.625l-1.859375 0l0 -3.203125l1.859375 0l0 -3.03125l4.03125 -2.34375l0 5.375l2.75 0zm2.7977448 -2.0625l0 -3.734375l4.0156403 0l0 3.734375l-4.0156403 0zm0 17.265625l0 -15.203125l4.0156403 0l0 15.203125l-4.0156403 0zm7.2108 -7.8125q0 -2.015625 0.984375 -3.890625q1.0 -1.875 2.8125 -2.859375q1.8125 -0.984375 4.03125 -0.984375q3.453125 0 5.65625 2.25q2.21875 2.234375 2.21875 5.65625q0 3.4375 -2.234375 5.71875q-2.21875 2.265625 -5.609375 2.265625q-2.078125 0 -3.984375 -0.9375q-1.890625 -0.953125 -2.890625 -2.78125q-0.984375 -1.828125 -0.984375 -4.4375zm4.125 0.203125q0 2.265625 1.078125 3.46875q1.078125 1.203125 2.640625 1.203125q1.578125 0 2.640625 -1.203125q1.078125 -1.203125 1.078125 -3.484375q0 -2.234375 -1.078125 -3.4375q-1.0625 -1.203125 -2.640625 -1.203125q-1.5625 0 -2.640625 1.203125q-1.078125 1.203125 -1.078125 3.453125zm28.55542 7.609375l-4.015625 0l0 -7.765625q0 -2.453125 -0.265625 -3.171875q-0.25 -0.734375 -0.84375 -1.125q-0.578125 -0.40625 -1.390625 -0.40625q-1.046875 0 -1.875 0.578125q-0.828125 0.5625 -1.140625 1.515625q-0.3125 0.9375 -0.3125 3.484375l0 6.890625l-4.015625 0l0 -15.203125l3.734375 0l0 2.234375q1.984375 -2.578125 5.015625 -2.578125q1.328125 0 2.421875 0.484375q1.109375 0.46875 1.671875 1.21875q0.578125 0.734375 0.796875 1.6875q0.21875 0.9375 0.21875 2.703125l0 9.453125z" fill-rule="nonzero"/><path fill="#ffcb09" d="m31.086615 405.79004l303.2756 0l0 115.1181l-303.2756 0z" fill-rule="evenodd"/><path stroke="#ffffff" stroke-width="2.0" stroke-linejoin="round" stroke-linecap="butt" d="m31.086615 405.79004l303.2756 0l0 115.1181l-303.2756 0z" fill-rule="evenodd"/><path fill="#000000" d="m81.33469 453.0091l7.734375 0q2.625 0 4.0 0.40625q1.84375 0.546875 3.15625 1.9375q1.328125 1.390625 2.015625 3.40625q0.6875 2.0 0.6875 4.953125q0 2.59375 -0.640625 4.46875q-0.796875 2.296875 -2.25 3.703125q-1.109375 1.078125 -2.984375 1.6875q-1.40625 0.4375 -3.75 0.4375l-7.96875 0l0 -21.0zm4.234375 3.5625l0 13.90625l3.15625 0q1.78125 0 2.578125 -0.203125q1.03125 -0.265625 1.703125 -0.875q0.6875 -0.625 1.109375 -2.03125q0.4375 -1.40625 0.4375 -3.84375q0 -2.4375 -0.4375 -3.734375q-0.421875 -1.296875 -1.203125 -2.03125q-0.765625 -0.734375 -1.953125 -0.984375q-0.890625 -0.203125 -3.484375 -0.203125l-1.90625 0zm25.726715 12.59375l4.015625 0.671875q-0.765625 2.203125 -2.4375 3.359375q-1.671875 1.15625 -4.171875 1.15625q-3.96875 0 -5.875 -2.59375q-1.5 -2.078125 -1.5 -5.234375q0 -3.78125 1.96875 -5.921875q1.984375 -2.140625 5.0 -2.140625q3.390625 0 5.34375 2.25q1.96875 2.234375 1.890625 6.859375l-10.078125 0q0.03125 1.78125 0.953125 2.78125q0.9375 1.0 2.328125 1.0q0.953125 0 1.59375 -0.515625q0.640625 -0.515625 0.96875 -1.671875zm0.234375 -4.0625q-0.046875 -1.75 -0.90625 -2.65625q-0.859375 -0.90625 -2.09375 -0.90625q-1.3125 0 -2.171875 0.953125q-0.859375 0.96875 -0.84375 2.609375l6.015625 0zm20.529663 -1.8125l-3.953125 0.71875q-0.203125 -1.1875 -0.921875 -1.78125q-0.703125 -0.609375 -1.828125 -0.609375q-1.515625 0 -2.40625 1.046875q-0.890625 1.03125 -0.890625 3.46875q0 2.703125 0.90625 3.828125q0.90625 1.109375 2.4375 1.109375q1.15625 0 1.875 -0.640625q0.734375 -0.65625 1.03125 -2.25l3.953125 0.671875q-0.609375 2.71875 -2.359375 4.109375q-1.75 1.390625 -4.6875 1.390625q-3.328125 0 -5.3125 -2.09375q-1.984375 -2.109375 -1.984375 -5.84375q0 -3.765625 1.984375 -5.859375q2.0 -2.09375 5.390625 -2.09375q2.78125 0 4.421875 1.203125q1.640625 1.1875 2.34375 3.625zm3.060913 -6.546875l0 -3.734375l4.015625 0l0 3.734375l-4.015625 0zm0 17.265625l0 -15.203125l4.015625 0l0 15.203125l-4.015625 0zm6.726425 -4.34375l4.03125 -0.609375q0.265625 1.171875 1.046875 1.78125q0.796875 0.609375 2.203125 0.609375q1.5625 0 2.359375 -0.578125q0.53125 -0.390625 0.53125 -1.0625q0 -0.46875 -0.296875 -0.765625q-0.296875 -0.28125 -1.34375 -0.53125q-4.859375 -1.078125 -6.171875 -1.953125q-1.796875 -1.234375 -1.796875 -3.4375q0 -1.96875 1.5625 -3.3125q1.5625 -1.34375 4.828125 -1.34375q3.125 0 4.640625 1.015625q1.53125 1.015625 2.09375 3.0l-3.796875 0.703125q-0.234375 -0.890625 -0.921875 -1.359375q-0.671875 -0.46875 -1.9375 -0.46875q-1.59375 0 -2.28125 0.4375q-0.453125 0.3125 -0.453125 0.8125q0 0.4375 0.40625 0.734375q0.53125 0.40625 3.75 1.140625q3.21875 0.71875 4.5 1.78125q1.25 1.078125 1.25 3.0q0 2.09375 -1.75 3.59375q-1.734375 1.5 -5.171875 1.5q-3.09375 0 -4.90625 -1.25q-1.8125 -1.265625 -2.375 -3.4375zm17.732773 -12.921875l0 -3.734375l4.015625 0l0 3.734375l-4.015625 0zm0 17.265625l0 -15.203125l4.015625 0l0 15.203125l-4.015625 0zm7.2108154 -7.8125q0 -2.015625 0.984375 -3.890625q1.0 -1.875 2.8125 -2.859375q1.8125 -0.984375 4.03125 -0.984375q3.453125 0 5.65625 2.25q2.21875 2.234375 2.21875 5.65625q0 3.4375 -2.234375 5.71875q-2.21875 2.265625 -5.609375 2.265625q-2.078125 0 -3.984375 -0.9375q-1.890625 -0.953125 -2.890625 -2.78125q-0.984375 -1.828125 -0.984375 -4.4375zm4.125 0.203125q0 2.265625 1.078125 3.46875q1.078125 1.203125 2.640625 1.203125q1.578125 0 2.640625 -1.203125q1.078125 -1.203125 1.078125 -3.484375q0 -2.234375 -1.078125 -3.4375q-1.0625 -1.203125 -2.640625 -1.203125q-1.5625 0 -2.640625 1.203125q-1.078125 1.203125 -1.078125 3.453125zm28.55542 7.609375l-4.015625 0l0 -7.765625q0 -2.453125 -0.265625 -3.171875q-0.25 -0.734375 -0.84375 -1.125q-0.578125 -0.40625 -1.390625 -0.40625q-1.046875 0 -1.875 0.578125q-0.828125 0.5625 -1.140625 1.515625q-0.3125 0.9375 -0.3125 3.484375l0 6.890625l-4.015625 0l0 -15.203125l3.734375 0l0 2.234375q1.984375 -2.578125 5.015625 -2.578125q1.328125 0 2.421875 0.484375q1.109375 0.46875 1.671875 1.21875q0.578125 0.734375 0.796875 1.6875q0.21875 0.9375 0.21875 2.703125l0 9.453125zm16.984955 0l0 -17.4375l-6.234375 0l0 -3.5625l16.6875 0l0 3.5625l-6.21875 0l0 17.4375l-4.234375 0zm15.390076 0l-4.015625 0l0 -15.203125l3.734375 0l0 2.15625q0.953125 -1.53125 1.71875 -2.015625q0.765625 -0.484375 1.75 -0.484375q1.375 0 2.640625 0.75l-1.234375 3.515625q-1.03125 -0.65625 -1.890625 -0.65625q-0.859375 0 -1.453125 0.46875q-0.578125 0.453125 -0.921875 1.671875q-0.328125 1.21875 -0.328125 5.09375l0 4.703125zm16.366455 -4.84375l4.015625 0.671875q-0.765625 2.203125 -2.4375 3.359375q-1.671875 1.15625 -4.171875 1.15625q-3.96875 0 -5.875 -2.59375q-1.5 -2.078125 -1.5 -5.234375q0 -3.78125 1.96875 -5.921875q1.984375 -2.140625 5.0 -2.140625q3.390625 0 5.34375 2.25q1.96875 2.234375 1.890625 6.859375l-10.078125 0q0.03125 1.78125 0.953125 2.78125q0.9375 1.0 2.328125 1.0q0.953125 0 1.59375 -0.515625q0.640625 -0.515625 0.96875 -1.671875zm0.234375 -4.0625q-0.046875 -1.75 -0.90625 -2.65625q-0.859375 -0.90625 -2.09375 -0.90625q-1.3125 0 -2.171875 0.953125q-0.859375 0.96875 -0.84375 2.609375l6.015625 0zm16.076538 4.0625l4.015625 0.671875q-0.765625 2.203125 -2.4375 3.359375q-1.671875 1.15625 -4.171875 1.15625q-3.96875 0 -5.875 -2.59375q-1.5 -2.078125 -1.5 -5.234375q0 -3.78125 1.96875 -5.921875q1.984375 -2.140625 5.0 -2.140625q3.390625 0 5.34375 2.25q1.96875 2.234375 1.890625 6.859375l-10.078125 0q0.03125 1.78125 0.953125 2.78125q0.9375 1.0 2.328125 1.0q0.953125 0 1.59375 -0.515625q0.640625 -0.515625 0.96875 -1.671875zm0.234375 -4.0625q-0.046875 -1.75 -0.90625 -2.65625q-0.859375 -0.90625 -2.09375 -0.90625q-1.3125 0 -2.171875 0.953125q-0.859375 0.96875 -0.84375 2.609375l6.015625 0zm5.857788 4.5625l4.03125 -0.609375q0.265625 1.171875 1.046875 1.78125q0.796875 0.609375 2.203125 0.609375q1.5625 0 2.359375 -0.578125q0.53125 -0.390625 0.53125 -1.0625q0 -0.46875 -0.296875 -0.765625q-0.296875 -0.28125 -1.34375 -0.53125q-4.859375 -1.078125 -6.171875 -1.953125q-1.796875 -1.234375 -1.796875 -3.4375q0 -1.96875 1.5625 -3.3125q1.5625 -1.34375 4.828125 -1.34375q3.125 0 4.640625 1.015625q1.53125 1.015625 2.09375 3.0l-3.796875 0.703125q-0.234375 -0.890625 -0.921875 -1.359375q-0.671875 -0.46875 -1.9375 -0.46875q-1.59375 0 -2.28125 0.4375q-0.453125 0.3125 -0.453125 0.8125q0 0.4375 0.40625 0.734375q0.53125 0.40625 3.75 1.140625q3.21875 0.71875 4.5 1.78125q1.25 1.078125 1.25 3.0q0 2.09375 -1.75 3.59375q-1.734375 1.5 -5.171875 1.5q-3.09375 0 -4.90625 -1.25q-1.8125 -1.265625 -2.375 -3.4375z" fill-rule="nonzero"/><path fill="#0097cb" d="m31.086615 246.16031l0 0c0 -17.167328 13.916868 -31.084198 31.084192 -31.084198l241.10721 0c8.244049 0 16.150421 3.2749329 21.979828 9.104355c5.8294373 5.829422 9.10437 13.735794 9.10437 21.979843l0 52.949738c0 17.167297 -13.91687 31.084167 -31.084198 31.084167l-241.10721 0c-17.167324 0 -31.084192 -13.91687 -31.084192 -31.084167z" fill-rule="evenodd"/><path stroke="#ffffff" stroke-width="2.0" stroke-linejoin="round" stroke-linecap="butt" d="m31.086615 246.16031l0 0c0 -17.167328 13.916868 -31.084198 31.084192 -31.084198l241.10721 0c8.244049 0 16.150421 3.2749329 21.979828 9.104355c5.8294373 5.829422 9.10437 13.735794 9.10437 21.979843l0 52.949738c0 17.167297 -13.91687 31.084167 -31.084198 31.084167l-241.10721 0c-17.167324 0 -31.084192 -13.91687 -31.084192 -31.084167z" fill-rule="evenodd"/><path fill="#ffffff" d="m76.50857 262.29517l7.734375 0q2.625 0 4.0 0.40625q1.84375 0.546875 3.15625 1.9375q1.328125 1.390625 2.015625 3.40625q0.6875 2.0 0.6875 4.953125q0 2.59375 -0.640625 4.46875q-0.796875 2.296875 -2.25 3.703125q-1.109375 1.078125 -2.984375 1.6875q-1.40625 0.4375 -3.75 0.4375l-7.96875 0l0 -21.0zm4.234375 3.5625l0 13.90625l3.15625 0q1.78125 0 2.578125 -0.203125q1.03125 -0.265625 1.703125 -0.875q0.6875 -0.625 1.109375 -2.03125q0.4375 -1.40625 0.4375 -3.84375q0 -2.4375 -0.4375 -3.734375q-0.421875 -1.296875 -1.203125 -2.03125q-0.765625 -0.734375 -1.953125 -0.984375q-0.890625 -0.203125 -3.484375 -0.203125l-1.90625 0zm21.67984 17.4375l0 -17.4375l-6.234375 0l0 -3.5625l16.6875 0l0 3.5625l-6.21875 0l0 17.4375l-4.234375 0zm34.766212 -7.71875l4.109375 1.296875q-0.9375 3.4375 -3.140625 5.109375q-2.203125 1.671875 -5.578125 1.671875q-4.171875 0 -6.8749924 -2.859375q-2.6875 -2.859375 -2.6875 -7.8125q0 -5.234375 2.703125 -8.140625q2.7031174 -2.90625 7.1249924 -2.90625q3.84375 0 6.25 2.28125q1.4375 1.34375 2.15625 3.875l-4.203125 1.0q-0.375 -1.640625 -1.5625 -2.578125q-1.171875 -0.953125 -2.859375 -0.953125q-2.34375 0 -3.796875 1.6875q-1.4531174 1.671875 -1.4531174 5.421875q0 3.984375 1.4374924 5.671875q1.4375 1.6875 3.71875 1.6875q1.703125 0 2.90625 -1.0625q1.21875 -1.078125 1.75 -3.390625zm6.789215 -0.09375q0 -2.015625 0.984375 -3.890625q1.0 -1.875 2.8125 -2.859375q1.8125 -0.984375 4.03125 -0.984375q3.453125 0 5.65625 2.25q2.21875 2.234375 2.21875 5.65625q0 3.4375 -2.234375 5.71875q-2.21875 2.265625 -5.609375 2.265625q-2.078125 0 -3.984375 -0.9375q-1.890625 -0.953125 -2.890625 -2.78125q-0.984375 -1.828125 -0.984375 -4.4375zm4.125 0.203125q0 2.265625 1.078125 3.46875q1.078125 1.203125 2.640625 1.203125q1.578125 0 2.640625 -1.203125q1.078125 -1.203125 1.078125 -3.484375q0 -2.234375 -1.078125 -3.4375q-1.0625 -1.203125 -2.640625 -1.203125q-1.5625 0 -2.640625 1.203125q-1.078125 1.203125 -1.078125 3.453125zm14.414795 -7.59375l3.71875 0l0 2.078125q1.984375 -2.421875 4.734375 -2.421875q1.46875 0 2.53125 0.609375q1.078125 0.59375 1.765625 1.8125q1.0 -1.21875 2.15625 -1.8125q1.171875 -0.609375 2.484375 -0.609375q1.671875 0 2.828125 0.6875q1.171875 0.671875 1.734375 1.984375q0.421875 0.96875 0.421875 3.15625l0 9.71875l-4.015625 0l0 -8.6875q0 -2.265625 -0.421875 -2.921875q-0.5625 -0.859375 -1.71875 -0.859375q-0.84375 0 -1.59375 0.515625q-0.734375 0.515625 -1.078125 1.515625q-0.328125 0.984375 -0.328125 3.140625l0 7.296875l-4.015625 0l0 -8.328125q0 -2.21875 -0.21875 -2.859375q-0.21875 -0.65625 -0.671875 -0.96875q-0.4375 -0.3125 -1.21875 -0.3125q-0.921875 0 -1.671875 0.5q-0.75 0.5 -1.078125 1.453125q-0.3125 0.9375 -0.3125 3.125l0 7.390625l-4.03125 0l0 -15.203125zm26.264908 0l3.765625 0l0 2.234375q0.71875 -1.15625 1.96875 -1.859375q1.25 -0.71875 2.765625 -0.71875q2.640625 0 4.484375 2.078125q1.859375 2.0625 1.859375 5.78125q0 3.8125 -1.859375 5.921875q-1.859375 2.109375 -4.515625 2.109375q-1.265625 0 -2.296875 -0.5q-1.015625 -0.5 -2.140625 -1.71875l0 7.65625l-4.03125 0l0 -20.984375zm3.984375 7.34375q0 2.5625 1.015625 3.796875q1.015625 1.21875 2.484375 1.21875q1.40625 0 2.328125 -1.125q0.9375 -1.125 0.9375 -3.6875q0 -2.390625 -0.96875 -3.546875q-0.953125 -1.171875 -2.375 -1.171875q-1.46875 0 -2.453125 1.140625q-0.96875 1.140625 -0.96875 3.375zm14.05542 -9.40625l0 -3.734375l4.015625 0l0 3.734375l-4.015625 0zm0 17.265625l0 -15.203125l4.015625 0l0 15.203125l-4.015625 0zm8.1483 0l0 -21.0l4.015625 0l0 21.0l-4.015625 0zm11.1483 -10.5625l-3.65625 -0.671875q0.625 -2.203125 2.125 -3.25q1.5 -1.0625 4.46875 -1.0625q2.6875 0 4.0 0.640625q1.328125 0.625 1.859375 1.609375q0.546875 0.984375 0.546875 3.609375l-0.046875 4.6875q0 2.0 0.1875 2.953125q0.203125 0.953125 0.734375 2.046875l-3.984375 0q-0.15625 -0.40625 -0.390625 -1.1875q-0.09375 -0.359375 -0.140625 -0.46875q-1.03125 1.0 -2.203125 1.5q-1.171875 0.5 -2.515625 0.5q-2.34375 0 -3.703125 -1.265625q-1.34375 -1.28125 -1.34375 -3.234375q0 -1.28125 0.609375 -2.28125q0.625 -1.015625 1.734375 -1.546875q1.109375 -0.546875 3.203125 -0.953125q2.8125 -0.53125 3.90625 -0.984375l0 -0.40625q0 -1.15625 -0.578125 -1.640625q-0.578125 -0.5 -2.15625 -0.5q-1.078125 0 -1.6875 0.421875q-0.59375 0.421875 -0.96875 1.484375zm5.390625 3.265625q-0.78125 0.25 -2.453125 0.609375q-1.671875 0.359375 -2.1875 0.703125q-0.796875 0.5625 -0.796875 1.421875q0 0.84375 0.625 1.46875q0.640625 0.609375 1.609375 0.609375q1.09375 0 2.078125 -0.71875q0.734375 -0.546875 0.96875 -1.34375q0.15625 -0.515625 0.15625 -1.953125l0 -0.796875zm14.889038 -7.90625l0 3.203125l-2.75 0l0 6.125q0 1.859375 0.078125 2.171875q0.078125 0.3125 0.359375 0.515625q0.28125 0.1875 0.6875 0.1875q0.546875 0 1.609375 -0.375l0.34375 3.125q-1.40625 0.59375 -3.171875 0.59375q-1.09375 0 -1.96875 -0.359375q-0.875 -0.375 -1.28125 -0.953125q-0.40625 -0.578125 -0.5625 -1.5625q-0.125 -0.703125 -0.125 -2.84375l0 -6.625l-1.859375 0l0 -3.203125l1.859375 0l0 -3.03125l4.03125 -2.34375l0 5.375l2.75 0zm2.7977448 -2.0625l0 -3.734375l4.015625 0l0 3.734375l-4.015625 0zm0 17.265625l0 -15.203125l4.015625 0l0 15.203125l-4.015625 0zm7.2108154 -7.8125q0 -2.015625 0.984375 -3.890625q1.0 -1.875 2.8125 -2.859375q1.8125 -0.984375 4.03125 -0.984375q3.453125 0 5.65625 2.25q2.21875 2.234375 2.21875 5.65625q0 3.4375 -2.234375 5.71875q-2.21875 2.265625 -5.609375 2.265625q-2.078125 0 -3.984375 -0.9375q-1.890625 -0.953125 -2.890625 -2.78125q-0.984375 -1.828125 -0.984375 -4.4375zm4.125 0.203125q0 2.265625 1.078125 3.46875q1.078125 1.203125 2.640625 1.203125q1.578125 0 2.640625 -1.203125q1.078125 -1.203125 1.078125 -3.484375q0 -2.234375 -1.078125 -3.4375q-1.0625 -1.203125 -2.640625 -1.203125q-1.5625 0 -2.640625 1.203125q-1.078125 1.203125 -1.078125 3.453125zm28.55542 7.609375l-4.015625 0l0 -7.765625q0 -2.453125 -0.265625 -3.171875q-0.25 -0.734375 -0.84375 -1.125q-0.578125 -0.40625 -1.390625 -0.40625q-1.046875 0 -1.875 0.578125q-0.828125 0.5625 -1.140625 1.515625q-0.3125 0.9375 -0.3125 3.484375l0 6.890625l-4.015625 0l0 -15.203125l3.734375 0l0 2.234375q1.984375 -2.578125 5.015625 -2.578125q1.328125 0 2.421875 0.484375q1.109375 0.46875 1.671875 1.21875q0.578125 0.734375 0.796875 1.6875q0.21875 0.9375 0.21875 2.703125l0 9.453125z" fill-rule="nonzero"/><path fill="#ffcb09" d="m812.45404 215.07611l303.27557 0l0 115.1181l-303.27557 0z" fill-rule="evenodd"/><path stroke="#ffffff" stroke-width="2.0" stroke-linejoin="round" stroke-linecap="butt" d="m812.45404 215.07611l303.27557 0l0 115.1181l-303.27557 0z" fill-rule="evenodd"/><path fill="#000000" d="m843.03687 283.29517l0 -21.0l4.25 0l0 21.0l-4.25 0zm22.085754 0l-4.015625 0l0 -7.765625q0 -2.453125 -0.265625 -3.171875q-0.25 -0.734375 -0.84375 -1.125q-0.578125 -0.40625 -1.390625 -0.40625q-1.046875 0 -1.875 0.578125q-0.828125 0.5625 -1.140625 1.515625q-0.3125 0.9375 -0.3125 3.484375l0 6.890625l-4.015625 0l0 -15.203125l3.734375 0l0 2.234375q1.984375 -2.578125 5.015625 -2.578125q1.328125 0 2.421875 0.484375q1.109375 0.46875 1.671875 1.21875q0.578125 0.734375 0.796875 1.6875q0.21875 0.9375 0.21875 2.703125l0 9.453125zm11.05542 -15.203125l0 3.203125l-2.75 0l0 6.125q0 1.859375 0.078125 2.171875q0.078125 0.3125 0.359375 0.515625q0.28125 0.1875 0.6875 0.1875q0.546875 0 1.609375 -0.375l0.34375 3.125q-1.40625 0.59375 -3.171875 0.59375q-1.09375 0 -1.96875 -0.359375q-0.875 -0.375 -1.28125 -0.953125q-0.40625 -0.578125 -0.5625 -1.5625q-0.125 -0.703125 -0.125 -2.84375l0 -6.625l-1.859375 0l0 -3.203125l1.859375 0l0 -3.03125l4.03125 -2.34375l0 5.375l2.75 0zm11.594666 10.359375l4.015625 0.671875q-0.765625 2.203125 -2.4375 3.359375q-1.671875 1.15625 -4.171875 1.15625q-3.96875 0 -5.875 -2.59375q-1.5 -2.078125 -1.5 -5.234375q0 -3.78125 1.96875 -5.921875q1.984375 -2.140625 5.0 -2.140625q3.390625 0 5.34375 2.25q1.96875 2.234375 1.890625 6.859375l-10.078125 0q0.03125 1.78125 0.953125 2.78125q0.9375 1.0 2.328125 1.0q0.953125 0 1.59375 -0.515625q0.640625 -0.515625 0.96875 -1.671875zm0.234375 -4.0625q-0.046875 -1.75 -0.90625 -2.65625q-0.859375 -0.90625 -2.09375 -0.90625q-1.3125 0 -2.171875 0.953125q-0.859375 0.96875 -0.84375 2.609375l6.015625 0zm11.123413 8.90625l-4.015625 0l0 -15.203125l3.734375 0l0 2.15625q0.953125 -1.53125 1.71875 -2.015625q0.765625 -0.484375 1.75 -0.484375q1.375 0 2.640625 0.75l-1.234375 3.515625q-1.03125 -0.65625 -1.890625 -0.65625q-0.859375 0 -1.453125 0.46875q-0.578125 0.453125 -0.921875 1.671875q-0.328125 1.21875 -0.328125 5.09375l0 4.703125zm7.44458 -15.203125l3.765625 0l0 2.234375q0.71875 -1.15625 1.96875 -1.859375q1.25 -0.71875 2.765625 -0.71875q2.640625 0 4.484375 2.078125q1.859375 2.0625 1.859375 5.78125q0 3.8125 -1.859375 5.921875q-1.859375 2.109375 -4.515625 2.109375q-1.265625 0 -2.296875 -0.5q-1.015625 -0.5 -2.140625 -1.71875l0 7.65625l-4.03125 0l0 -20.984375zm3.984375 7.34375q0 2.5625 1.015625 3.796875q1.015625 1.21875 2.484375 1.21875q1.40625 0 2.328125 -1.125q0.9375 -1.125 0.9375 -3.6875q0 -2.390625 -0.96875 -3.546875q-0.953125 -1.171875 -2.375 -1.171875q-1.46875 0 -2.453125 1.140625q-0.96875 1.140625 -0.96875 3.375zm17.89917 7.859375l-4.015625 0l0 -15.203125l3.734375 0l0 2.15625q0.953125 -1.53125 1.71875 -2.015625q0.765625 -0.484375 1.75 -0.484375q1.375 0 2.640625 0.75l-1.234375 3.515625q-1.03125 -0.65625 -1.890625 -0.65625q-0.859375 0 -1.453125 0.46875q-0.578125 0.453125 -0.921875 1.671875q-0.328125 1.21875 -0.328125 5.09375l0 4.703125zm16.366455 -4.84375l4.015625 0.671875q-0.765625 2.203125 -2.4375 3.359375q-1.671875 1.15625 -4.171875 1.15625q-3.96875 0 -5.875 -2.59375q-1.5 -2.078125 -1.5 -5.234375q0 -3.78125 1.96875 -5.921875q1.984375 -2.140625 5.0 -2.140625q3.390625 0 5.34375 2.25q1.96875 2.234375 1.890625 6.859375l-10.078125 0q0.03125 1.78125 0.953125 2.78125q0.9375 1.0 2.328125 1.0q0.953125 0 1.59375 -0.515625q0.640625 -0.515625 0.96875 -1.671875zm0.234375 -4.0625q-0.046875 -1.75 -0.90625 -2.65625q-0.859375 -0.90625 -2.09375 -0.90625q-1.3125 0 -2.171875 0.953125q-0.859375 0.96875 -0.84375 2.609375l6.015625 0zm14.248413 -6.296875l0 3.203125l-2.75 0l0 6.125q0 1.859375 0.078125 2.171875q0.078125 0.3125 0.359375 0.515625q0.28125 0.1875 0.6875 0.1875q0.546875 0 1.609375 -0.375l0.34375 3.125q-1.40625 0.59375 -3.171875 0.59375q-1.09375 0 -1.96875 -0.359375q-0.875 -0.375 -1.28125 -0.953125q-0.40625 -0.578125 -0.5625 -1.5625q-0.125 -0.703125 -0.125 -2.84375l0 -6.625l-1.859375 0l0 -3.203125l1.859375 0l0 -3.03125l4.03125 -2.34375l0 5.375l2.75 0zm11.5946045 10.359375l4.015625 0.671875q-0.765625 2.203125 -2.4375 3.359375q-1.671875 1.15625 -4.171875 1.15625q-3.96875 0 -5.875 -2.59375q-1.5 -2.078125 -1.5 -5.234375q0 -3.78125 1.96875 -5.921875q1.984375 -2.140625 5.0 -2.140625q3.390625 0 5.34375 2.25q1.96875 2.234375 1.890625 6.859375l-10.078125 0q0.03125 1.78125 0.953125 2.78125q0.9375 1.0 2.328125 1.0q0.953125 0 1.59375 -0.515625q0.640625 -0.515625 0.96875 -1.671875zm0.234375 -4.0625q-0.046875 -1.75 -0.90625 -2.65625q-0.859375 -0.90625 -2.09375 -0.90625q-1.3125 0 -2.171875 0.953125q-0.859375 0.96875 -0.84375 2.609375l6.015625 0zm11.123413 8.90625l-4.015625 0l0 -15.203125l3.734375 0l0 2.15625q0.953125 -1.53125 1.71875 -2.015625q0.765625 -0.484375 1.75 -0.484375q1.375 0 2.640625 0.75l-1.234375 3.515625q-1.03125 -0.65625 -1.890625 -0.65625q-0.859375 0 -1.453125 0.46875q-0.578125 0.453125 -0.921875 1.671875q-0.328125 1.21875 -0.328125 5.09375l0 4.703125zm15.7491455 -21.0l8.40625 0q2.484375 0 3.703125 0.21875q1.234375 0.203125 2.1875 0.859375q0.96875 0.65625 1.609375 1.765625q0.65625 1.09375 0.65625 2.453125q0 1.46875 -0.796875 2.703125q-0.796875 1.234375 -2.15625 1.84375q1.921875 0.5625 2.953125 1.90625q1.03125 1.34375 1.03125 3.15625q0 1.4375 -0.671875 2.796875q-0.65625 1.34375 -1.8125 2.15625q-1.15625 0.8125 -2.84375 1.0q-1.0625 0.109375 -5.109375 0.140625l-7.15625 0l0 -21.0zm4.25 3.5l0 4.859375l2.78125 0q2.46875 0 3.078125 -0.078125q1.078125 -0.125 1.703125 -0.75q0.625 -0.625 0.625 -1.640625q0 -0.96875 -0.546875 -1.578125q-0.53125 -0.609375 -1.59375 -0.734375q-0.625 -0.078125 -3.609375 -0.078125l-2.4375 0zm0 8.34375l0 5.625l3.921875 0q2.296875 0 2.90625 -0.140625q0.9375 -0.171875 1.53125 -0.828125q0.59375 -0.671875 0.59375 -1.78125q0 -0.953125 -0.453125 -1.609375q-0.453125 -0.65625 -1.328125 -0.953125q-0.859375 -0.3125 -3.75 -0.3125l-3.421875 0zm16.89862 -8.109375l0 -3.734375l4.015625 0l0 3.734375l-4.015625 0zm0 17.265625l0 -15.203125l4.015625 0l0 15.203125l-4.015625 0zm21.97638 0l-4.015625 0l0 -7.765625q0 -2.453125 -0.265625 -3.171875q-0.25 -0.734375 -0.84375 -1.125q-0.578125 -0.40625 -1.390625 -0.40625q-1.046875 0 -1.875 0.578125q-0.828125 0.5625 -1.140625 1.515625q-0.3125 0.9375 -0.3125 3.484375l0 6.890625l-4.015625 0l0 -15.203125l3.734375 0l0 2.234375q1.984375 -2.578125 5.015625 -2.578125q1.328125 0 2.421875 0.484375q1.109375 0.46875 1.671875 1.21875q0.578125 0.734375 0.796875 1.6875q0.21875 0.9375 0.21875 2.703125l0 9.453125zm7.08667 -10.5625l-3.65625 -0.671875q0.625 -2.203125 2.125 -3.25q1.5 -1.0625 4.46875 -1.0625q2.6875 0 4.0 0.640625q1.328125 0.625 1.859375 1.609375q0.546875 0.984375 0.546875 3.609375l-0.046875 4.6875q0 2.0 0.1875 2.953125q0.203125 0.953125 0.734375 2.046875l-3.984375 0q-0.15625 -0.40625 -0.390625 -1.1875q-0.09375 -0.359375 -0.140625 -0.46875q-1.03125 1.0 -2.203125 1.5q-1.171875 0.5 -2.515625 0.5q-2.34375 0 -3.703125 -1.265625q-1.34375 -1.28125 -1.34375 -3.234375q0 -1.28125 0.609375 -2.28125q0.625 -1.015625 1.734375 -1.546875q1.109375 -0.546875 3.203125 -0.953125q2.8125 -0.53125 3.90625 -0.984375l0 -0.40625q0 -1.15625 -0.578125 -1.640625q-0.578125 -0.5 -2.15625 -0.5q-1.078125 0 -1.6875 0.421875q-0.59375 0.421875 -0.96875 1.484375zm5.390625 3.265625q-0.78125 0.25 -2.453125 0.609375q-1.671875 0.359375 -2.1875 0.703125q-0.796875 0.5625 -0.796875 1.421875q0 0.84375 0.625 1.46875q0.640625 0.609375 1.609375 0.609375q1.09375 0 2.078125 -0.71875q0.734375 -0.546875 0.96875 -1.34375q0.15625 -0.515625 0.15625 -1.953125l0 -0.796875zm11.764038 7.296875l-4.015625 0l0 -15.203125l3.734375 0l0 2.15625q0.953125 -1.53125 1.71875 -2.015625q0.765625 -0.484375 1.75 -0.484375q1.375 0 2.640625 0.75l-1.234375 3.515625q-1.03125 -0.65625 -1.890625 -0.65625q-0.859375 0 -1.453125 0.46875q-0.578125 0.453125 -0.921875 1.671875q-0.328125 1.21875 -0.328125 5.09375l0 4.703125zm5.66333 -15.203125l4.28125 0l3.640625 10.796875l3.546875 -10.796875l4.171875 0l-5.375 14.625l-0.953125 2.65625q-0.53125 1.328125 -1.015625 2.03125q-0.484375 0.703125 -1.109375 1.140625q-0.609375 0.4375 -1.53125 0.671875q-0.90625 0.25 -2.046875 0.25q-1.15625 0 -2.28125 -0.25l-0.359375 -3.140625q0.953125 0.1875 1.703125 0.1875q1.40625 0 2.078125 -0.828125q0.671875 -0.828125 1.03125 -2.09375l-5.78125 -15.25z" fill-rule="nonzero"/><path fill="#0097cb" d="m421.77036 246.16031l0 0c0 -17.167328 13.91684 -31.084198 31.084167 -31.084198l241.10721 0c8.244019 0 16.150452 3.2749329 21.979858 9.104355c5.8294067 5.829422 9.10437 13.735794 9.10437 21.979843l0 52.949738c0 17.167297 -13.91687 31.084167 -31.084229 31.084167l-241.10721 0c-17.167328 0 -31.084167 -13.91687 -31.084167 -31.084167z" fill-rule="evenodd"/><path stroke="#ffffff" stroke-width="2.0" stroke-linejoin="round" stroke-linecap="butt" d="m421.77036 246.16031l0 0c0 -17.167328 13.91684 -31.084198 31.084167 -31.084198l241.10721 0c8.244019 0 16.150452 3.2749329 21.979858 9.104355c5.8294067 5.829422 9.10437 13.735794 9.10437 21.979843l0 52.949738c0 17.167297 -13.91687 31.084167 -31.084229 31.084167l-241.10721 0c-17.167328 0 -31.084167 -13.91687 -31.084167 -31.084167z" fill-rule="evenodd"/><path fill="#ffffff" d="m470.82748 275.57642l4.109375 1.296875q-0.9375 3.4375 -3.140625 5.109375q-2.203125 1.671875 -5.578125 1.671875q-4.171875 0 -6.875 -2.859375q-2.6875 -2.859375 -2.6875 -7.8125q0 -5.234375 2.703125 -8.140625q2.703125 -2.90625 7.125 -2.90625q3.84375 0 6.25 2.28125q1.4375 1.34375 2.15625 3.875l-4.203125 1.0q-0.375 -1.640625 -1.5625 -2.578125q-1.171875 -0.953125 -2.859375 -0.953125q-2.34375 0 -3.796875 1.6875q-1.453125 1.671875 -1.453125 5.421875q0 3.984375 1.4375 5.671875q1.4375 1.6875 3.71875 1.6875q1.703125 0 2.90625 -1.0625q1.21875 -1.078125 1.75 -3.390625zm6.789215 -0.09375q0 -2.015625 0.984375 -3.890625q1.0 -1.875 2.8125 -2.859375q1.8125 -0.984375 4.03125 -0.984375q3.453125 0 5.65625 2.25q2.21875 2.234375 2.21875 5.65625q0 3.4375 -2.234375 5.71875q-2.21875 2.265625 -5.609375 2.265625q-2.078125 0 -3.984375 -0.9375q-1.890625 -0.953125 -2.890625 -2.78125q-0.984375 -1.828125 -0.984375 -4.4375zm4.125 0.203125q0 2.265625 1.078125 3.46875q1.078125 1.203125 2.640625 1.203125q1.578125 0 2.640625 -1.203125q1.078125 -1.203125 1.078125 -3.484375q0 -2.234375 -1.078125 -3.4375q-1.0625 -1.203125 -2.640625 -1.203125q-1.5625 0 -2.640625 1.203125q-1.078125 1.203125 -1.078125 3.453125zm28.664795 7.609375l-3.734375 0l0 -2.234375q-0.921875 1.296875 -2.203125 1.9375q-1.265625 0.640625 -2.546875 0.640625q-2.625 0 -4.5 -2.109375q-1.859375 -2.109375 -1.859375 -5.890625q0 -3.875 1.8125 -5.875q1.828125 -2.015625 4.609375 -2.015625q2.546875 0 4.40625 2.109375l0 -7.5625l4.015625 0l0 21.0zm-10.734375 -7.9375q0 2.4375 0.671875 3.53125q0.96875 1.578125 2.71875 1.578125q1.390625 0 2.359375 -1.1875q0.984375 -1.1875 0.984375 -3.53125q0 -2.625 -0.953125 -3.765625q-0.9375 -1.15625 -2.421875 -1.15625q-1.421875 0 -2.390625 1.140625q-0.96875 1.125 -0.96875 3.390625zm23.508545 3.09375l4.015625 0.671875q-0.765625 2.203125 -2.4375 3.359375q-1.671875 1.15625 -4.171875 1.15625q-3.96875 0 -5.875 -2.59375q-1.5 -2.078125 -1.5 -5.234375q0 -3.78125 1.96875 -5.921875q1.984375 -2.140625 5.0 -2.140625q3.390625 0 5.34375 2.25q1.96875 2.234375 1.890625 6.859375l-10.078125 0q0.03125 1.78125 0.953125 2.78125q0.9375 1.0 2.328125 1.0q0.953125 0 1.59375 -0.515625q0.640625 -0.515625 0.96875 -1.671875zm0.234375 -4.0625q-0.046875 -1.75 -0.90625 -2.65625q-0.859375 -0.90625 -2.09375 -0.90625q-1.3125 0 -2.171875 0.953125q-0.859375 0.96875 -0.84375 2.609375l6.015625 0zm25.224854 1.1875l0 -3.53125l9.125 0l0 8.359375q-1.328125 1.28125 -3.859375 2.265625q-2.515625 0.984375 -5.109375 0.984375q-3.296875 0 -5.75 -1.375q-2.453125 -1.390625 -3.6875 -3.953125q-1.21875 -2.578125 -1.21875 -5.59375q0 -3.28125 1.375 -5.828125q1.375 -2.5625 4.015625 -3.921875q2.03125 -1.046875 5.03125 -1.046875q3.90625 0 6.109375 1.640625q2.203125 1.640625 2.828125 4.546875l-4.21875 0.78125q-0.4375 -1.546875 -1.671875 -2.4375q-1.21875 -0.90625 -3.046875 -0.90625q-2.78125 0 -4.421875 1.765625q-1.640625 1.765625 -1.640625 5.234375q0 3.734375 1.65625 5.609375q1.671875 1.859375 4.359375 1.859375q1.34375 0 2.671875 -0.515625q1.34375 -0.53125 2.296875 -1.28125l0 -2.65625l-4.84375 0zm21.812378 2.875l4.015625 0.671875q-0.765625 2.203125 -2.4375 3.359375q-1.671875 1.15625 -4.171875 1.15625q-3.96875 0 -5.875 -2.59375q-1.5 -2.078125 -1.5 -5.234375q0 -3.78125 1.96875 -5.921875q1.984375 -2.140625 5.0 -2.140625q3.390625 0 5.34375 2.25q1.96875 2.234375 1.890625 6.859375l-10.078125 0q0.03125 1.78125 0.953125 2.78125q0.9375 1.0 2.328125 1.0q0.953125 0 1.59375 -0.515625q0.640625 -0.515625 0.96875 -1.671875zm0.234375 -4.0625q-0.046875 -1.75 -0.90625 -2.65625q-0.859375 -0.90625 -2.09375 -0.90625q-1.3125 0 -2.171875 0.953125q-0.859375 0.96875 -0.84375 2.609375l6.015625 0zm21.107788 8.90625l-4.015625 0l0 -7.765625q0 -2.453125 -0.265625 -3.171875q-0.25 -0.734375 -0.84375 -1.125q-0.578125 -0.40625 -1.390625 -0.40625q-1.046875 0 -1.875 0.578125q-0.828125 0.5625 -1.140625 1.515625q-0.3125 0.9375 -0.3125 3.484375l0 6.890625l-4.015625 0l0 -15.203125l3.734375 0l0 2.234375q1.984375 -2.578125 5.015625 -2.578125q1.328125 0 2.421875 0.484375q1.109375 0.46875 1.671875 1.21875q0.578125 0.734375 0.796875 1.6875q0.21875 0.9375 0.21875 2.703125l0 9.453125zm12.883545 -4.84375l4.015625 0.671875q-0.765625 2.203125 -2.4375 3.359375q-1.671875 1.15625 -4.171875 1.15625q-3.96875 0 -5.875 -2.59375q-1.5 -2.078125 -1.5 -5.234375q0 -3.78125 1.96875 -5.921875q1.984375 -2.140625 5.0 -2.140625q3.390625 0 5.34375 2.25q1.96875 2.234375 1.890625 6.859375l-10.078125 0q0.03125 1.78125 0.953125 2.78125q0.9375 1.0 2.328125 1.0q0.953125 0 1.59375 -0.515625q0.640625 -0.515625 0.96875 -1.671875zm0.234375 -4.0625q-0.046875 -1.75 -0.90625 -2.65625q-0.859375 -0.90625 -2.09375 -0.90625q-1.3125 0 -2.171875 0.953125q-0.859375 0.96875 -0.84375 2.609375l6.015625 0zm11.123413 8.90625l-4.015625 0l0 -15.203125l3.734375 0l0 2.15625q0.953125 -1.53125 1.71875 -2.015625q0.765625 -0.484375 1.75 -0.484375q1.375 0 2.640625 0.75l-1.234375 3.515625q-1.03125 -0.65625 -1.890625 -0.65625q-0.859375 0 -1.453125 0.46875q-0.578125 0.453125 -0.921875 1.671875q-0.328125 1.21875 -0.328125 5.09375l0 4.703125zm10.56958 -10.5625l-3.65625 -0.671875q0.625 -2.203125 2.125 -3.25q1.5 -1.0625 4.46875 -1.0625q2.6875 0 4.0 0.640625q1.328125 0.625 1.859375 1.609375q0.546875 0.984375 0.546875 3.609375l-0.046875 4.6875q0 2.0 0.1875 2.953125q0.203125 0.953125 0.734375 2.046875l-3.984375 0q-0.15625 -0.40625 -0.390625 -1.1875q-0.09375 -0.359375 -0.140625 -0.46875q-1.03125 1.0 -2.203125 1.5q-1.171875 0.5 -2.515625 0.5q-2.34375 0 -3.703125 -1.265625q-1.34375 -1.28125 -1.34375 -3.234375q0 -1.28125 0.609375 -2.28125q0.625 -1.015625 1.734375 -1.546875q1.109375 -0.546875 3.203125 -0.953125q2.8125 -0.53125 3.90625 -0.984375l0 -0.40625q0 -1.15625 -0.578125 -1.640625q-0.578125 -0.5 -2.15625 -0.5q-1.078125 0 -1.6875 0.421875q-0.59375 0.421875 -0.96875 1.484375zm5.390625 3.265625q-0.78125 0.25 -2.453125 0.609375q-1.671875 0.359375 -2.1875 0.703125q-0.796875 0.5625 -0.796875 1.421875q0 0.84375 0.625 1.46875q0.640625 0.609375 1.609375 0.609375q1.09375 0 2.078125 -0.71875q0.734375 -0.546875 0.96875 -1.34375q0.15625 -0.515625 0.15625 -1.953125l0 -0.796875zm14.889038 -7.90625l0 3.203125l-2.75 0l0 6.125q0 1.859375 0.078125 2.171875q0.078125 0.3125 0.359375 0.515625q0.28125 0.1875 0.6875 0.1875q0.546875 0 1.609375 -0.375l0.34375 3.125q-1.40625 0.59375 -3.171875 0.59375q-1.09375 0 -1.96875 -0.359375q-0.875 -0.375 -1.28125 -0.953125q-0.40625 -0.578125 -0.5625 -1.5625q-0.125 -0.703125 -0.125 -2.84375l0 -6.625l-1.859375 0l0 -3.203125l1.859375 0l0 -3.03125l4.03125 -2.34375l0 5.375l2.75 0zm2.7977295 -2.0625l0 -3.734375l4.015625 0l0 3.734375l-4.015625 0zm0 17.265625l0 -15.203125l4.015625 0l0 15.203125l-4.015625 0zm7.2108154 -7.8125q0 -2.015625 0.984375 -3.890625q1.0 -1.875 2.8125 -2.859375q1.8125 -0.984375 4.03125 -0.984375q3.453125 0 5.65625 2.25q2.21875 2.234375 2.21875 5.65625q0 3.4375 -2.234375 5.71875q-2.21875 2.265625 -5.609375 2.265625q-2.078125 0 -3.984375 -0.9375q-1.890625 -0.953125 -2.890625 -2.78125q-0.984375 -1.828125 -0.984375 -4.4375zm4.125 0.203125q0 2.265625 1.078125 3.46875q1.078125 1.203125 2.640625 1.203125q1.578125 0 2.640625 -1.203125q1.078125 -1.203125 1.078125 -3.484375q0 -2.234375 -1.078125 -3.4375q-1.0625 -1.203125 -2.640625 -1.203125q-1.5625 0 -2.640625 1.203125q-1.078125 1.203125 -1.078125 3.453125zm28.55542 7.609375l-4.015625 0l0 -7.765625q0 -2.453125 -0.265625 -3.171875q-0.25 -0.734375 -0.84375 -1.125q-0.578125 -0.40625 -1.390625 -0.40625q-1.046875 0 -1.875 0.578125q-0.828125 0.5625 -1.140625 1.515625q-0.3125 0.9375 -0.3125 3.484375l0 6.890625l-4.015625 0l0 -15.203125l3.734375 0l0 2.234375q1.984375 -2.578125 5.015625 -2.578125q1.328125 0 2.421875 0.484375q1.109375 0.46875 1.671875 1.21875q0.578125 0.734375 0.796875 1.6875q0.21875 0.9375 0.21875 2.703125l0 9.453125z" fill-rule="nonzero"/><path fill="#000000" fill-opacity="0.0" d="m182.72441 139.48032l0 75.590546" fill-rule="evenodd"/><path stroke="#ffffff" stroke-width="2.0" stroke-linejoin="round" stroke-linecap="butt" d="m182.72441 139.48032l0 63.590546" fill-rule="evenodd"/><path fill="#ffffff" stroke="#ffffff" stroke-width="2.0" stroke-linecap="butt" d="m179.42094 203.07086l3.3034668 9.076202l3.3034668 -9.076202z" fill-rule="evenodd"/><path fill="#000000" fill-opacity="0.0" d="m182.72441 330.1942l0 75.590576" fill-rule="evenodd"/><path stroke="#ffffff" stroke-width="2.0" stroke-linejoin="round" stroke-linecap="butt" d="m182.72441 330.1942l0 63.590576" fill-rule="evenodd"/><path fill="#ffffff" stroke="#ffffff" stroke-width="2.0" stroke-linecap="butt" d="m179.42094 393.7848l3.3034668 9.076172l3.3034668 -9.076172z" fill-rule="evenodd"/><path fill="#000000" fill-opacity="0.0" d="m334.3622 81.92126c119.52756 0 239.05508 66.58268 239.05508 133.16534" fill-rule="evenodd"/><path stroke="#ffffff" stroke-width="2.0" stroke-linejoin="round" stroke-linecap="butt" d="m334.3622 81.92126c59.763763 0 119.52756 16.645676 164.35037 41.614174c22.411438 12.484253 41.087585 27.04921 54.16095 42.654526c6.536682 7.802658 11.672607 15.865402 15.174377 24.058197c1.7509155 4.09639 3.0932617 8.225311 3.9979248 12.370468l0.112976074 0.5341644" fill-rule="evenodd"/><path fill="#ffffff" stroke="#ffffff" stroke-width="2.0" stroke-linecap="butt" d="m568.87354 203.49925l4.2371216 8.6796875l2.333374 -9.372604z" fill-rule="evenodd"/><path fill="#000000" fill-opacity="0.0" d="m334.3622 463.3491c119.52756 0 239.05508 -66.58267 239.05508 -133.16537" fill-rule="evenodd"/><path stroke="#ffffff" stroke-width="2.0" stroke-linejoin="round" stroke-linecap="butt" d="m334.3622 463.3491c59.763763 0 119.52756 -16.64569 164.35037 -41.614197c22.411438 -12.484222 41.087585 -27.049194 54.16095 -42.65451c6.536682 -7.8026733 11.672607 -15.8654175 15.174377 -24.058197c1.7509155 -4.096405 3.0932617 -8.225311 3.9979248 -12.370453l0.112976074 -0.5341797" fill-rule="evenodd"/><path fill="#ffffff" stroke="#ffffff" stroke-width="2.0" stroke-linecap="butt" d="m575.44403 342.46402l-2.333374 -9.37262l-4.2371216 8.6796875z" fill-rule="evenodd"/><path fill="#000000" fill-opacity="0.0" d="m725.04596 272.63516l87.40155 0" fill-rule="evenodd"/><path stroke="#ffffff" stroke-width="2.0" stroke-linejoin="round" stroke-linecap="butt" d="m725.04596 272.63516l75.40155 0" fill-rule="evenodd"/><path fill="#ffffff" stroke="#ffffff" stroke-width="2.0" stroke-linecap="butt" d="m800.4475 275.93863l9.076172 -3.3034668l-9.076172 -3.3034668z" fill-rule="evenodd"/></g></svg>