<svg version="1.1" viewBox="0.0 0.0 1479.6614173228347 330.18110236220474" fill="none" stroke="none" stroke-linecap="square" stroke-miterlimit="10" xmlns:xlink="http://www.w3.org/1999/xlink" xmlns="http://www.w3.org/2000/svg"><clipPath id="p.0"><path d="m0 0l1479.6614 0l0 330.1811l-1479.6614 0l0 -330.1811z" clip-rule="nonzero"/></clipPath><g clip-path="url(#p.0)"><path fill="#000000" fill-opacity="0.0" d="m0 0l1479.6614 0l0 330.1811l-1479.6614 0z" fill-rule="evenodd"/><path fill="#ffcb09" d="m619.0444 202.50919l247.4646 0l0 115.1181l-247.4646 0z" fill-rule="evenodd"/><path stroke="#000000" stroke-width="2.0" stroke-linejoin="round" stroke-linecap="butt" d="m619.0444 202.50919l247.4646 0l0 115.1181l-247.4646 0z" fill-rule="evenodd"/><path fill="#000000" d="m647.4172 270.72824l0 -21.0l8.921875 0q3.375 0 4.890625 0.578125q1.53125 0.5625 2.4375 2.015625q0.921875 1.4375 0.921875 3.296875q0 2.359375 -1.390625 3.90625q-1.375 1.53125 -4.140625 1.9375q1.375 0.796875 2.265625 1.765625q0.890625 0.953125 2.40625 3.40625l2.5625 4.09375l-5.0625 0l-3.0625 -4.5625q-1.640625 -2.453125 -2.25 -3.09375q-0.59375 -0.640625 -1.265625 -0.875q-0.671875 -0.234375 -2.125 -0.234375l-0.859375 0l0 8.765625l-4.25 0zm4.25 -12.109375l3.125 0q3.0625 0 3.8125 -0.25q0.765625 -0.265625 1.1875 -0.890625q0.4375 -0.640625 0.4375 -1.578125q0 -1.0625 -0.578125 -1.71875q-0.5625 -0.65625 -1.59375 -0.828125q-0.515625 -0.0625 -3.09375 -0.0625l-3.296875 0l0 5.328125zm26.89856 12.109375l0 -2.28125q-0.828125 1.21875 -2.1875 1.921875q-1.34375 0.703125 -2.84375 0.703125q-1.53125 0 -2.75 -0.671875q-1.21875 -0.671875 -1.765625 -1.890625q-0.546875 -1.21875 -0.546875 -3.359375l0 -9.625l4.03125 0l0 6.984375q0 3.203125 0.21875 3.9375q0.21875 0.71875 0.796875 1.140625q0.59375 0.421875 1.5 0.421875q1.03125 0 1.84375 -0.5625q0.828125 -0.578125 1.125 -1.40625q0.296875 -0.84375 0.296875 -4.109375l0 -6.40625l4.03125 0l0 15.203125l-3.75 0zm21.74292 0l-4.015625 0l0 -7.765625q0 -2.453125 -0.265625 -3.171875q-0.25 -0.734375 -0.84375 -1.125q-0.578125 -0.40625 -1.390625 -0.40625q-1.046875 0 -1.875 0.578125q-0.828125 0.5625 -1.140625 1.515625q-0.3125 0.9375 -0.3125 3.484375l0 6.890625l-4.015625 0l0 -15.203125l3.734375 0l0 2.234375q1.984375 -2.578125 5.015625 -2.578125q1.328125 0 2.421875 0.484375q1.109375 0.46875 1.671875 1.21875q0.578125 0.734375 0.796875 1.6875q0.21875 0.9375 0.21875 2.703125l0 9.453125zm11.05542 -15.203125l0 3.203125l-2.75 0l0 6.125q0 1.859375 0.078125 2.171875q0.078125 0.3125 0.359375 0.515625q0.28125 0.1875 0.6875 0.1875q0.546875 0 1.609375 -0.375l0.34375 3.125q-1.40625 0.59375 -3.171875 0.59375q-1.09375 0 -1.96875 -0.359375q-0.875 -0.375 -1.28125 -0.953125q-0.40625 -0.578125 -0.5625 -1.5625q-0.125 -0.703125 -0.125 -2.84375l0 -6.625l-1.859375 0l0 -3.203125l1.859375 0l0 -3.03125l4.03125 -2.34375l0 5.375l2.75 0zm2.7977905 -2.0625l0 -3.734375l4.015625 0l0 3.734375l-4.015625 0zm0 17.265625l0 -15.203125l4.015625 0l0 15.203125l-4.015625 0zm7.8357544 -15.203125l3.71875 0l0 2.078125q1.984375 -2.421875 4.734375 -2.421875q1.46875 0 2.53125 0.609375q1.078125 0.59375 1.765625 1.8125q1.0 -1.21875 2.15625 -1.8125q1.171875 -0.609375 2.484375 -0.609375q1.671875 0 2.828125 0.6875q1.171875 0.671875 1.734375 1.984375q0.421875 0.96875 0.421875 3.15625l0 9.71875l-4.015625 0l0 -8.6875q0 -2.265625 -0.421875 -2.921875q-0.5625 -0.859375 -1.71875 -0.859375q-0.84375 0 -1.59375 0.515625q-0.734375 0.515625 -1.078125 1.515625q-0.328125 0.984375 -0.328125 3.140625l0 7.296875l-4.015625 0l0 -8.328125q0 -2.21875 -0.21875 -2.859375q-0.21875 -0.65625 -0.671875 -0.96875q-0.4375 -0.3125 -1.21875 -0.3125q-0.921875 0 -1.671875 0.5q-0.75 0.5 -1.078125 1.453125q-0.3125 0.9375 -0.3125 3.125l0 7.390625l-4.03125 0l0 -15.203125zm35.18683 10.359375l4.015625 0.671875q-0.765625 2.203125 -2.4375 3.359375q-1.671875 1.15625 -4.171875 1.15625q-3.96875 0 -5.875 -2.59375q-1.5 -2.078125 -1.5 -5.234375q0 -3.78125 1.96875 -5.921875q1.984375 -2.140625 5.0 -2.140625q3.390625 0 5.34375 2.25q1.96875 2.234375 1.890625 6.859375l-10.078125 0q0.03125 1.78125 0.953125 2.78125q0.9375 1.0 2.328125 1.0q0.953125 0 1.59375 -0.515625q0.640625 -0.515625 0.96875 -1.671875zm0.234375 -4.0625q-0.046875 -1.75 -0.90625 -2.65625q-0.859375 -0.90625 -2.09375 -0.90625q-1.3125 0 -2.171875 0.953125q-0.859375 0.96875 -0.84375 2.609375l6.015625 0zm20.177979 8.90625l0 -17.4375l-6.234375 0l0 -3.5625l16.6875 0l0 3.5625l-6.21875 0l0 17.4375l-4.234375 0zm19.784546 -4.84375l4.015625 0.671875q-0.765625 2.203125 -2.4375 3.359375q-1.671875 1.15625 -4.171875 1.15625q-3.96875 0 -5.875 -2.59375q-1.5 -2.078125 -1.5 -5.234375q0 -3.78125 1.96875 -5.921875q1.984375 -2.140625 5.0 -2.140625q3.390625 0 5.34375 2.25q1.96875 2.234375 1.890625 6.859375l-10.078125 0q0.03125 1.78125 0.953125 2.78125q0.9375 1.0 2.328125 1.0q0.953125 0 1.59375 -0.515625q0.640625 -0.515625 0.96875 -1.671875zm0.234375 -4.0625q-0.046875 -1.75 -0.90625 -2.65625q-0.859375 -0.90625 -2.09375 -0.90625q-1.3125 0 -2.171875 0.953125q-0.859375 0.96875 -0.84375 2.609375l6.015625 0zm11.123413 8.90625l-4.015625 0l0 -15.203125l3.734375 0l0 2.15625q0.953125 -1.53125 1.71875 -2.015625q0.765625 -0.484375 1.75 -0.484375q1.375 0 2.640625 0.75l-1.234375 3.515625q-1.03125 -0.65625 -1.890625 -0.65625q-0.859375 0 -1.453125 0.46875q-0.578125 0.453125 -0.921875 1.671875q-0.328125 1.21875 -0.328125 5.09375l0 4.703125zm7.257141 -15.203125l3.71875 0l0 2.078125q1.984375 -2.421875 4.734375 -2.421875q1.46875 0 2.53125 0.609375q1.078125 0.59375 1.765625 1.8125q1.0 -1.21875 2.15625 -1.8125q1.171875 -0.609375 2.484375 -0.609375q1.671875 0 2.828125 0.6875q1.171875 0.671875 1.734375 1.984375q0.421875 0.96875 0.421875 3.15625l0 9.71875l-4.015625 0l0 -8.6875q0 -2.265625 -0.421875 -2.921875q-0.5625 -0.859375 -1.71875 -0.859375q-0.84375 0 -1.59375 0.515625q-0.734375 0.515625 -1.078125 1.515625q-0.328125 0.984375 -0.328125 3.140625l0 7.296875l-4.015625 0l0 -8.328125q0 -2.21875 -0.21875 -2.859375q-0.21875 -0.65625 -0.671875 -0.96875q-0.4375 -0.3125 -1.21875 -0.3125q-0.921875 0 -1.671875 0.5q-0.75 0.5 -1.078125 1.453125q-0.3125 0.9375 -0.3125 3.125l0 7.390625l-4.03125 0l0 -15.203125z" fill-rule="nonzero"/><path fill="#0097cb" d="m944.1756 233.59338l0 0c0 -17.167328 13.91687 -31.084198 31.084229 -31.084198l133.51666 0l0 0c8.244019 0 16.15039 3.2749329 21.979858 9.104355c5.8293457 5.8294067 9.104248 13.735794 9.104248 21.979843l0 52.949707c0 17.167328 -13.91687 31.084198 -31.084106 31.084198l-133.51666 0c-17.167358 0 -31.084229 -13.91687 -31.084229 -31.084198z" fill-rule="evenodd"/><path stroke="#000000" stroke-width="2.0" stroke-linejoin="round" stroke-linecap="butt" d="m944.1756 233.59338l0 0c0 -17.167328 13.91687 -31.084198 31.084229 -31.084198l133.51666 0l0 0c8.244019 0 16.15039 3.2749329 21.979858 9.104355c5.8293457 5.8294067 9.104248 13.735794 9.104248 21.979843l0 52.949707c0 17.167328 -13.91687 31.084198 -31.084106 31.084198l-133.51666 0c-17.167358 0 -31.084229 -13.91687 -31.084229 -31.084198z" fill-rule="evenodd"/><path fill="#ffffff" d="m971.6163 249.72824l4.234375 0l0 11.375q0 2.703125 0.15625 3.515625q0.28125 1.28125 1.296875 2.0625q1.03125 0.78125 2.796875 0.78125q1.8125 0 2.71875 -0.734375q0.921875 -0.734375 1.109375 -1.8125q0.1875 -1.078125 0.1875 -3.5625l0 -11.625l4.234375 0l0 11.03125q0 3.78125 -0.34375 5.34375q-0.34375 1.5625 -1.265625 2.640625q-0.921875 1.0625 -2.46875 1.703125q-1.546875 0.640625 -4.046875 0.640625q-3.0 0 -4.5625 -0.6875q-1.546875 -0.703125 -2.453125 -1.8125q-0.890625 -1.109375 -1.1875 -2.328125q-0.40625 -1.796875 -0.40625 -5.328125l0 -11.203125zm35.007935 21.0l-4.015625 0l0 -7.765625q0 -2.453125 -0.265625 -3.171875q-0.25 -0.734375 -0.84375 -1.125q-0.578125 -0.40625 -1.390625 -0.40625q-1.046875 0 -1.875 0.578125q-0.828125 0.5625 -1.140625 1.515625q-0.3125 0.9375 -0.3125 3.484375l0 6.890625l-4.015625 0l0 -15.203125l3.734375 0l0 2.234375q1.984375 -2.578125 5.015625 -2.578125q1.328125 0 2.421875 0.484375q1.109375 0.46875 1.671875 1.21875q0.578125 0.734375 0.796875 1.6875q0.21875 0.9375 0.21875 2.703125l0 9.453125zm3.96167 -15.203125l3.765625 0l0 2.234375q0.71875 -1.15625 1.96875 -1.859375q1.25 -0.71875 2.765625 -0.71875q2.640625 0 4.484375 2.078125q1.859436 2.0625 1.859436 5.78125q0 3.8125 -1.859436 5.921875q-1.859375 2.109375 -4.515625 2.109375q-1.265625 0 -2.296875 -0.5q-1.015625 -0.5 -2.140625 -1.71875l0 7.65625l-4.03125 0l0 -20.984375zm3.984375 7.34375q0 2.5625 1.015625 3.796875q1.015625 1.21875 2.484375 1.21875q1.40625 0 2.328125 -1.125q0.9375 -1.125 0.9375 -3.6875q0 -2.390625 -0.96875 -3.546875q-0.953125 -1.171875 -2.375 -1.171875q-1.46875 0 -2.453125 1.140625q-0.96875 1.140625 -0.96875 3.375zm17.055481 -2.703125l-3.65625 -0.671875q0.625 -2.203125 2.125 -3.25q1.5 -1.0625 4.46875 -1.0625q2.6875 0 4.0 0.640625q1.328125 0.625 1.859375 1.609375q0.546875 0.984375 0.546875 3.609375l-0.046875 4.6875q0 2.0 0.1875 2.953125q0.203125 0.953125 0.734375 2.046875l-3.984375 0q-0.15625 -0.40625 -0.390625 -1.1875q-0.09375 -0.359375 -0.140625 -0.46875q-1.03125 1.0 -2.203125 1.5q-1.171875 0.5 -2.515625 0.5q-2.34375 0 -3.703125 -1.265625q-1.34375 -1.28125 -1.34375 -3.234375q0 -1.28125 0.609375 -2.28125q0.625 -1.015625 1.734375 -1.546875q1.109375 -0.546875 3.203125 -0.953125q2.8125 -0.53125 3.90625 -0.984375l0 -0.40625q0 -1.15625 -0.578125 -1.640625q-0.578125 -0.5 -2.15625 -0.5q-1.078125 0 -1.6875 0.421875q-0.59375 0.421875 -0.96875 1.484375zm5.390625 3.265625q-0.78125 0.25 -2.453125 0.609375q-1.671875 0.359375 -2.1875 0.703125q-0.796875 0.5625 -0.796875 1.421875q0 0.84375 0.625 1.46875q0.640625 0.609375 1.609375 0.609375q1.09375 0 2.078125 -0.71875q0.734375 -0.546875 0.96875 -1.34375q0.15625 -0.515625 0.15625 -1.953125l0 -0.796875zm11.764038 7.296875l-4.015625 0l0 -15.203125l3.734375 0l0 2.15625q0.953125 -1.53125 1.71875 -2.015625q0.765625 -0.484375 1.75 -0.484375q1.375 0 2.640625 0.75l-1.234375 3.515625q-1.03125 -0.65625 -1.890625 -0.65625q-0.859375 0 -1.453125 0.46875q-0.578125 0.453125 -0.921875 1.671875q-0.328125 1.21875 -0.328125 5.09375l0 4.703125zm6.147705 -4.34375l4.03125 -0.609375q0.265625 1.171875 1.046875 1.78125q0.796875 0.609375 2.203125 0.609375q1.5625 0 2.359375 -0.578125q0.53125 -0.390625 0.53125 -1.0625q0 -0.46875 -0.296875 -0.765625q-0.296875 -0.28125 -1.34375 -0.53125q-4.859375 -1.078125 -6.171875 -1.953125q-1.796875 -1.234375 -1.796875 -3.4375q0 -1.96875 1.5625 -3.3125q1.5625 -1.34375 4.828125 -1.34375q3.125 0 4.640625 1.015625q1.53125 1.015625 2.09375 3.0l-3.796875 0.703125q-0.234375 -0.890625 -0.921875 -1.359375q-0.671875 -0.46875 -1.9375 -0.46875q-1.59375 0 -2.28125 0.4375q-0.453125 0.3125 -0.453125 0.8125q0 0.4375 0.40625 0.734375q0.53125 0.40625 3.75 1.140625q3.21875 0.71875 4.5 1.78125q1.25 1.078125 1.25 3.0q0 2.09375 -1.75 3.59375q-1.734375 1.5 -5.171875 1.5q-3.09375 0 -4.90625 -1.25q-1.8125 -1.265625 -2.375 -3.4375zm17.732788 -12.921875l0 -3.734375l4.015625 0l0 3.734375l-4.015625 0zm0 17.265625l0 -15.203125l4.015625 0l0 15.203125l-4.015625 0zm21.97644 0l-4.015625 0l0 -7.765625q0 -2.453125 -0.265625 -3.171875q-0.25 -0.734375 -0.84375 -1.125q-0.578125 -0.40625 -1.390625 -0.40625q-1.046875 0 -1.875 0.578125q-0.828125 0.5625 -1.140625 1.515625q-0.3125 0.9375 -0.3125 3.484375l0 6.890625l-4.015625 0l0 -15.203125l3.734375 0l0 2.234375q1.984375 -2.578125 5.015625 -2.578125q1.328125 0 2.421875 0.484375q1.109375 0.46875 1.671875 1.21875q0.578125 0.734375 0.796875 1.6875q0.21875 0.9375 0.21875 2.703125l0 9.453125zm3.71167 1.0l4.59375 0.5625q0.109375 0.796875 0.53125 1.09375q0.578125 0.4375 1.796875 0.4375q1.578125 0 2.375 -0.46875q0.53125 -0.3125 0.796875 -1.015625q0.1875 -0.5 0.1875 -1.859375l0 -2.21875q-1.8125 2.46875 -4.5625 2.46875q-3.0625 0 -4.84375 -2.59375q-1.40625 -2.046875 -1.40625 -5.09375q0 -3.828125 1.84375 -5.84375q1.84375 -2.015625 4.578125 -2.015625q2.8125 0 4.640625 2.46875l0 -2.125l3.765625 0l0 13.640625q0 2.6875 -0.4375 4.015625q-0.4375 1.34375 -1.25 2.09375q-0.796875 0.765625 -2.140625 1.1875q-1.328125 0.4375 -3.375 0.4375q-3.875 0 -5.5 -1.328125q-1.609375 -1.328125 -1.609375 -3.359375q0 -0.203125 0.015625 -0.484375zm3.59375 -8.921875q0 2.421875 0.9375 3.546875q0.9375 1.125 2.3125 1.125q1.46875 0 2.484375 -1.15625q1.03125 -1.15625 1.03125 -3.40625q0 -2.375 -0.984375 -3.515625q-0.96875 -1.140625 -2.453125 -1.140625q-1.453125 0 -2.390625 1.125q-0.9375 1.125 -0.9375 3.421875z" fill-rule="nonzero"/><path fill="#0097cb" d="m619.0444 43.966084l0 0c0 -17.167326 13.91687 -31.084194 31.084229 -31.084194l185.29614 0c8.24408 0 16.150452 3.2749329 21.979858 9.104349c5.8294067 5.8294163 9.10437 13.735804 9.10437 21.979845l0 52.949726l0 0c0 17.16732 -13.91687 31.08419 -31.084229 31.08419l-185.29614 0l0 0c-17.167358 0 -31.084229 -13.91687 -31.084229 -31.08419z" fill-rule="evenodd"/><path stroke="#000000" stroke-width="2.0" stroke-linejoin="round" stroke-linecap="butt" d="m619.0444 43.966084l0 0c0 -17.167326 13.91687 -31.084194 31.084229 -31.084194l185.29614 0c8.24408 0 16.150452 3.2749329 21.979858 9.104349c5.8294067 5.8294163 9.10437 13.735804 9.10437 21.979845l0 52.949726l0 0c0 17.16732 -13.91687 31.08419 -31.084229 31.08419l-185.29614 0l0 0c-17.167358 0 -31.084229 -13.91687 -31.084229 -31.08419z" fill-rule="evenodd"/><path fill="#ffffff" d="m674.8405 81.100945l0 -21.0l15.5625 0l0 3.5625l-11.328125 0l0 4.65625l10.53125 0l0 3.53125l-10.53125 0l0 5.71875l11.71875 0l0 3.53125l-15.953125 0zm17.592896 0l5.484375 -7.828125l-5.25 -7.375l4.90625 0l2.6875 4.171875l2.84375 -4.171875l4.71875 0l-5.15625 7.203125l5.625 8.0l-4.9375 0l-3.09375 -4.71875l-3.109375 4.71875l-4.71875 0zm27.045288 -4.84375l4.015625 0.671875q-0.765625 2.203125 -2.4375 3.359375q-1.671875 1.15625 -4.171875 1.15625q-3.96875 0 -5.875 -2.59375q-1.5 -2.078125 -1.5 -5.234375q0 -3.78125 1.96875 -5.921875q1.984375 -2.140625 5.0 -2.140625q3.390625 0 5.34375 2.25q1.96875 2.234375 1.890625 6.859375l-10.078125 0q0.03125 1.78125 0.953125 2.78125q0.9375 1.0 2.328125 1.0q0.953125 0 1.59375 -0.515625q0.640625 -0.515625 0.96875 -1.671875zm0.234375 -4.0625q-0.046875 -1.75 -0.90625 -2.65625q-0.859375 -0.90625 -2.09375 -0.90625q-1.3125 0 -2.171875 0.953125q-0.859375 0.96875 -0.84375 2.609375l6.015625 0zm20.529663 -1.8125l-3.953125 0.71875q-0.203125 -1.1875 -0.921875 -1.78125q-0.703125 -0.609375 -1.828125 -0.609375q-1.515625 0 -2.40625 1.046875q-0.890625 1.03125 -0.890625 3.46875q0 2.703125 0.90625 3.828125q0.90625 1.109375 2.4375 1.109375q1.15625 0 1.875 -0.640625q0.734375 -0.65625 1.03125 -2.25l3.953125 0.671875q-0.609375 2.71875 -2.359375 4.109375q-1.75 1.390625 -4.6875 1.390625q-3.328125 0 -5.3125 -2.09375q-1.984375 -2.109375 -1.984375 -5.84375q0 -3.765625 1.984375 -5.859375q2.0 -2.09375 5.390625 -2.09375q2.78125 0 4.421875 1.203125q1.640625 1.1875 2.34375 3.625zm13.060913 10.71875l0 -2.28125q-0.828125 1.21875 -2.1875 1.921875q-1.34375 0.703125 -2.84375 0.703125q-1.53125 0 -2.75 -0.671875q-1.21875 -0.671875 -1.765625 -1.890625q-0.546875 -1.21875 -0.546875 -3.359375l0 -9.625l4.03125 0l0 6.984375q0 3.203125 0.21875 3.9375q0.21875 0.71875 0.796875 1.140625q0.59375 0.421875 1.5 0.421875q1.03125 0 1.84375 -0.5625q0.828125 -0.578125 1.125 -1.40625q0.296875 -0.84375 0.296875 -4.109375l0 -6.40625l4.03125 0l0 15.203125l-3.75 0zm14.883545 -15.203125l0 3.203125l-2.75 0l0 6.125q0 1.859375 0.078125 2.171875q0.078125 0.3125 0.359375 0.515625q0.28125 0.1875 0.6875 0.1875q0.546875 0 1.609375 -0.375l0.34375 3.125q-1.40625 0.59375 -3.171875 0.59375q-1.09375 0 -1.96875 -0.359375q-0.875 -0.375 -1.28125 -0.953125q-0.40625 -0.578125 -0.5625 -1.5625q-0.125 -0.703125 -0.125 -2.84375l0 -6.625l-1.859375 0l0 -3.203125l1.859375 0l0 -3.03125l4.03125 -2.34375l0 5.375l2.75 0zm2.7977295 -2.0625l0 -3.734375l4.015625 0l0 3.734375l-4.015625 0zm0 17.265625l0 -15.203125l4.015625 0l0 15.203125l-4.015625 0zm7.2108154 -7.8125q0 -2.015625 0.984375 -3.890625q1.0 -1.875 2.8125 -2.859375q1.8125 -0.984375 4.03125 -0.984375q3.453125 0 5.65625 2.25q2.21875 2.234375 2.21875 5.65625q0 3.4375 -2.234375 5.71875q-2.21875 2.265625 -5.609375 2.265625q-2.078125 0 -3.984375 -0.9375q-1.890625 -0.953125 -2.890625 -2.78125q-0.984375 -1.828125 -0.984375 -4.4375zm4.125 0.203125q0 2.265625 1.078125 3.46875q1.078125 1.203125 2.640625 1.203125q1.578125 0 2.640625 -1.203125q1.078125 -1.203125 1.078125 -3.484375q0 -2.234375 -1.078125 -3.4375q-1.0625 -1.203125 -2.640625 -1.203125q-1.5625 0 -2.640625 1.203125q-1.078125 1.203125 -1.078125 3.453125zm28.55542 7.609375l-4.015625 0l0 -7.765625q0 -2.453125 -0.265625 -3.171875q-0.25 -0.734375 -0.84375 -1.125q-0.578125 -0.40625 -1.390625 -0.40625q-1.046875 0 -1.875 0.578125q-0.828125 0.5625 -1.140625 1.515625q-0.3125 0.9375 -0.3125 3.484375l0 6.890625l-4.015625 0l0 -15.203125l3.734375 0l0 2.234375q1.984375 -2.578125 5.015625 -2.578125q1.328125 0 2.421875 0.484375q1.109375 0.46875 1.671875 1.21875q0.578125 0.734375 0.796875 1.6875q0.21875 0.9375 0.21875 2.703125l0 9.453125z" fill-rule="nonzero"/><path fill="#0097cb" d="m345.69266 233.59338l0 0c0 -17.167328 13.91687 -31.084198 31.084198 -31.084198l133.51666 0l0 0c8.244019 0 16.150452 3.2749329 21.979858 9.104355c5.8294067 5.8294067 9.104309 13.735794 9.104309 21.979843l0 52.949707c0 17.167328 -13.91687 31.084198 -31.084167 31.084198l-133.51666 0c-17.167328 0 -31.084198 -13.91687 -31.084198 -31.084198z" fill-rule="evenodd"/><path stroke="#000000" stroke-width="2.0" stroke-linejoin="round" stroke-linecap="butt" d="m345.69266 233.59338l0 0c0 -17.167328 13.91687 -31.084198 31.084198 -31.084198l133.51666 0l0 0c8.244019 0 16.150452 3.2749329 21.979858 9.104355c5.8294067 5.8294067 9.104309 13.735794 9.104309 21.979843l0 52.949707c0 17.167328 -13.91687 31.084198 -31.084167 31.084198l-133.51666 0c-17.167328 0 -31.084198 -13.91687 -31.084198 -31.084198z" fill-rule="evenodd"/><path fill="#ffffff" d="m391.8885 270.72824l0 -21.0l6.796875 0q3.859375 0 5.046875 0.328125q1.796875 0.46875 3.015625 2.046875q1.21875 1.578125 1.21875 4.09375q0 1.921875 -0.703125 3.25q-0.703125 1.3125 -1.78125 2.0625q-1.078125 0.75 -2.203125 1.0q-1.515625 0.296875 -4.390625 0.296875l-2.765625 0l0 7.921875l-4.234375 0zm4.234375 -17.4375l0 5.953125l2.3125 0q2.515625 0 3.359375 -0.328125q0.84375 -0.328125 1.3125 -1.03125q0.484375 -0.703125 0.484375 -1.640625q0 -1.140625 -0.671875 -1.875q-0.671875 -0.75 -1.703125 -0.9375q-0.75 -0.140625 -3.046875 -0.140625l-2.046875 0zm18.29599 6.875l-3.65625 -0.671875q0.625 -2.203125 2.125 -3.25q1.5 -1.0625 4.46875 -1.0625q2.6875 0 4.0 0.640625q1.328125 0.625 1.859375 1.609375q0.546875 0.984375 0.546875 3.609375l-0.046875 4.6875q0 2.0 0.1875 2.953125q0.203125 0.953125 0.734375 2.046875l-3.984375 0q-0.15625 -0.40625 -0.390625 -1.1875q-0.09375 -0.359375 -0.140625 -0.46875q-1.03125 1.0 -2.203125 1.5q-1.171875 0.5 -2.515625 0.5q-2.34375 0 -3.703125 -1.265625q-1.34375 -1.28125 -1.34375 -3.234375q0 -1.28125 0.609375 -2.28125q0.625 -1.015625 1.734375 -1.546875q1.109375 -0.546875 3.203125 -0.953125q2.8125 -0.53125 3.90625 -0.984375l0 -0.40625q0 -1.15625 -0.578125 -1.640625q-0.578125 -0.5 -2.15625 -0.5q-1.078125 0 -1.6875 0.421875q-0.59375 0.421875 -0.96875 1.484375zm5.390625 3.265625q-0.78125 0.25 -2.453125 0.609375q-1.671875 0.359375 -2.1875 0.703125q-0.796875 0.5625 -0.796875 1.421875q0 0.84375 0.625 1.46875q0.640625 0.609375 1.609375 0.609375q1.09375 0 2.078125 -0.71875q0.734375 -0.546875 0.96875 -1.34375q0.15625 -0.515625 0.15625 -1.953125l0 -0.796875zm11.764038 7.296875l-4.015625 0l0 -15.203125l3.734375 0l0 2.15625q0.953125 -1.53125 1.71875 -2.015625q0.765625 -0.484375 1.75 -0.484375q1.375 0 2.640625 0.75l-1.234375 3.515625q-1.03125 -0.65625 -1.890625 -0.65625q-0.859375 0 -1.453125 0.46875q-0.578125 0.453125 -0.921875 1.671875q-0.328125 1.21875 -0.328125 5.09375l0 4.703125zm6.1477356 -4.34375l4.03125 -0.609375q0.265625 1.171875 1.046875 1.78125q0.796875 0.609375 2.203125 0.609375q1.5625 0 2.359375 -0.578125q0.53125 -0.390625 0.53125 -1.0625q0 -0.46875 -0.296875 -0.765625q-0.296875 -0.28125 -1.34375 -0.53125q-4.859375 -1.078125 -6.171875 -1.953125q-1.796875 -1.234375 -1.796875 -3.4375q0 -1.96875 1.5625 -3.3125q1.5625 -1.34375 4.828125 -1.34375q3.125 0 4.640625 1.015625q1.53125 1.015625 2.09375 3.0l-3.796875 0.703125q-0.234375 -0.890625 -0.921875 -1.359375q-0.671875 -0.46875 -1.9375 -0.46875q-1.59375 0 -2.28125 0.4375q-0.453125 0.3125 -0.453125 0.8125q0 0.4375 0.40625 0.734375q0.53125 0.40625 3.75 1.140625q3.21875 0.71875 4.5 1.78125q1.25 1.078125 1.25 3.0q0 2.09375 -1.75 3.59375q-1.734375 1.5 -5.171875 1.5q-3.09375 0 -4.90625 -1.25q-1.8125 -1.265625 -2.375 -3.4375zm17.732788 -12.921875l0 -3.734375l4.015625 0l0 3.734375l-4.015625 0zm0 17.265625l0 -15.203125l4.015625 0l0 15.203125l-4.015625 0zm21.97641 0l-4.015625 0l0 -7.765625q0 -2.453125 -0.265625 -3.171875q-0.25 -0.734375 -0.84375 -1.125q-0.578125 -0.40625 -1.390625 -0.40625q-1.046875 0 -1.875 0.578125q-0.828125 0.5625 -1.140625 1.515625q-0.3125 0.9375 -0.3125 3.484375l0 6.890625l-4.015625 0l0 -15.203125l3.734375 0l0 2.234375q1.984375 -2.578125 5.015625 -2.578125q1.328125 0 2.421875 0.484375q1.109375 0.46875 1.671875 1.21875q0.578125 0.734375 0.796875 1.6875q0.21875 0.9375 0.21875 2.703125l0 9.453125zm3.71167 1.0l4.59375 0.5625q0.109375 0.796875 0.53125 1.09375q0.578125 0.4375 1.796875 0.4375q1.578125 0 2.375 -0.46875q0.53125 -0.3125 0.796875 -1.015625q0.1875 -0.5 0.1875 -1.859375l0 -2.21875q-1.8125 2.46875 -4.5625 2.46875q-3.0625 0 -4.84375 -2.59375q-1.40625 -2.046875 -1.40625 -5.09375q0 -3.828125 1.84375 -5.84375q1.84375 -2.015625 4.578125 -2.015625q2.8125 0 4.640625 2.46875l0 -2.125l3.765625 0l0 13.640625q0 2.6875 -0.4375 4.015625q-0.4375 1.34375 -1.25 2.09375q-0.796875 0.765625 -2.140625 1.1875q-1.328125 0.4375 -3.375 0.4375q-3.875 0 -5.5 -1.328125q-1.609375 -1.328125 -1.609375 -3.359375q0 -0.203125 0.015625 -0.484375zm3.59375 -8.921875q0 2.421875 0.9375 3.546875q0.9375 1.125 2.3125 1.125q1.46875 0 2.484375 -1.15625q1.03125 -1.15625 1.03125 -3.40625q0 -2.375 -0.984375 -3.515625q-0.96875 -1.140625 -2.453125 -1.140625q-1.453125 0 -2.390625 1.125q-0.9375 1.125 -0.9375 3.421875z" fill-rule="nonzero"/><path fill="#ffcb09" d="m20.561438 202.50919l247.46457 0l0 115.1181l-247.46457 0z" fill-rule="evenodd"/><path stroke="#000000" stroke-width="2.0" stroke-linejoin="round" stroke-linecap="butt" d="m20.561438 202.50919l247.46457 0l0 115.1181l-247.46457 0z" fill-rule="evenodd"/><path fill="#000000" d="m65.270546 270.72824l0 -21.0l4.25 0l0 9.328125l8.5625 -9.328125l5.6875 0l-7.90625 8.1875l8.34375 12.8125l-5.484375 0l-5.78125 -9.859375l-3.421875 3.515625l0 6.34375l-4.25 0zm20.27359 -10.375q0 -3.203125 0.953125 -5.375q0.71875 -1.609375 1.953125 -2.875q1.234375 -1.28125 2.71875 -1.890625q1.953125 -0.84375 4.515625 -0.84375q4.640625 0 7.421875 2.890625q2.796875 2.875 2.796875 8.0q0 5.078125 -2.765625 7.953125q-2.765625 2.875 -7.390625 2.875q-4.6875 0 -7.453125 -2.859375q-2.75 -2.859375 -2.75 -7.875zm4.359375 -0.140625q0 3.5625 1.640625 5.40625q1.65625 1.84375 4.1875 1.84375q2.53125 0 4.15625 -1.828125q1.625 -1.828125 1.625 -5.46875q0 -3.609375 -1.578125 -5.390625q-1.578125 -1.78125 -4.203125 -1.78125q-2.625 0 -4.234375 1.796875q-1.59375 1.796875 -1.59375 5.421875zm19.312363 10.515625l0 -21.0l8.921875 0q3.375 0 4.890625 0.578125q1.53125 0.5625 2.4375 2.015625q0.921875 1.4375 0.921875 3.296875q0 2.359375 -1.390625 3.90625q-1.375 1.53125 -4.140625 1.9375q1.375 0.796875 2.265625 1.765625q0.890625 0.953125 2.40625 3.40625l2.5624924 4.09375l-5.0624924 0l-3.0625 -4.5625q-1.640625 -2.453125 -2.25 -3.09375q-0.59375 -0.640625 -1.265625 -0.875q-0.671875 -0.234375 -2.125 -0.234375l-0.859375 0l0 8.765625l-4.25 0zm4.25 -12.109375l3.125 0q3.0625 0 3.8125 -0.25q0.765625 -0.265625 1.1875 -0.890625q0.4375 -0.640625 0.4375 -1.578125q0 -1.0625 -0.578125 -1.71875q-0.5625 -0.65625 -1.59375 -0.828125q-0.515625 -0.0625 -3.09375 -0.0625l-3.296875 0l0 5.328125zm16.929832 12.109375l0 -21.0l15.5625 0l0 3.5625l-11.328125 0l0 4.65625l10.53125 0l0 3.53125l-10.53125 0l0 5.71875l11.71875 0l0 3.53125l-15.953125 0zm32.42868 0l0 -17.4375l-6.234375 0l0 -3.5625l16.6875 0l0 3.5625l-6.21875 0l0 17.4375l-4.234375 0zm19.784592 -4.84375l4.015625 0.671875q-0.765625 2.203125 -2.4375 3.359375q-1.671875 1.15625 -4.171875 1.15625q-3.96875 0 -5.875 -2.59375q-1.5 -2.078125 -1.5 -5.234375q0 -3.78125 1.96875 -5.921875q1.984375 -2.140625 5.0 -2.140625q3.390625 0 5.34375 2.25q1.96875 2.234375 1.890625 6.859375l-10.078125 0q0.03125 1.78125 0.953125 2.78125q0.9375 1.0 2.328125 1.0q0.953125 0 1.59375 -0.515625q0.640625 -0.515625 0.96875 -1.671875zm0.234375 -4.0625q-0.046875 -1.75 -0.90625 -2.65625q-0.859375 -0.90625 -2.09375 -0.90625q-1.3125 0 -2.171875 0.953125q-0.859375 0.96875 -0.84375 2.609375l6.015625 0zm11.123413 8.90625l-4.015625 0l0 -15.203125l3.734375 0l0 2.15625q0.953125 -1.53125 1.71875 -2.015625q0.765625 -0.484375 1.75 -0.484375q1.375 0 2.640625 0.75l-1.234375 3.515625q-1.03125 -0.65625 -1.890625 -0.65625q-0.859375 0 -1.453125 0.46875q-0.578125 0.453125 -0.921875 1.671875q-0.328125 1.21875 -0.328125 5.09375l0 4.703125zm7.2570953 -15.203125l3.71875 0l0 2.078125q1.984375 -2.421875 4.734375 -2.421875q1.46875 0 2.53125 0.609375q1.078125 0.59375 1.765625 1.8125q1.0 -1.21875 2.15625 -1.8125q1.171875 -0.609375 2.484375 -0.609375q1.671875 0 2.828125 0.6875q1.171875 0.671875 1.734375 1.984375q0.421875 0.96875 0.421875 3.15625l0 9.71875l-4.015625 0l0 -8.6875q0 -2.265625 -0.421875 -2.921875q-0.5625 -0.859375 -1.71875 -0.859375q-0.84375 0 -1.59375 0.515625q-0.734375 0.515625 -1.078125 1.515625q-0.328125 0.984375 -0.328125 3.140625l0 7.296875l-4.015625 0l0 -8.328125q0 -2.21875 -0.21875 -2.859375q-0.21875 -0.65625 -0.671875 -0.96875q-0.4375 -0.3125 -1.21875 -0.3125q-0.921875 0 -1.671875 0.5q-0.75 0.5 -1.078125 1.453125q-0.3125 0.9375 -0.3125 3.125l0 7.390625l-4.03125 0l0 -15.203125z" fill-rule="nonzero"/><path fill="#ffcb09" d="m1217.5273 202.50919l247.4646 0l0 115.1181l-247.4646 0z" fill-rule="evenodd"/><path stroke="#000000" stroke-width="2.0" stroke-linejoin="round" stroke-linecap="butt" d="m1217.5273 202.50919l247.4646 0l0 115.1181l-247.4646 0z" fill-rule="evenodd"/><path fill="#000000" d="m1262.2365 270.72824l0 -21.0l4.25 0l0 9.328125l8.5625 -9.328125l5.6875 0l-7.90625 8.1875l8.34375 12.8125l-5.484375 0l-5.78125 -9.859375l-3.421875 3.515625l0 6.34375l-4.25 0zm20.27356 -10.375q0 -3.203125 0.953125 -5.375q0.71875 -1.609375 1.953125 -2.875q1.234375 -1.28125 2.71875 -1.890625q1.953125 -0.84375 4.515625 -0.84375q4.640625 0 7.421875 2.890625q2.796875 2.875 2.796875 8.0q0 5.078125 -2.765625 7.953125q-2.765625 2.875 -7.390625 2.875q-4.6875 0 -7.453125 -2.859375q-2.75 -2.859375 -2.75 -7.875zm4.359375 -0.140625q0 3.5625 1.640625 5.40625q1.65625 1.84375 4.1875 1.84375q2.53125 0 4.15625 -1.828125q1.625 -1.828125 1.625 -5.46875q0 -3.609375 -1.578125 -5.390625q-1.578125 -1.78125 -4.203125 -1.78125q-2.625 0 -4.234375 1.796875q-1.59375 1.796875 -1.59375 5.421875zm19.312378 10.515625l0 -21.0l8.921875 0q3.375 0 4.890625 0.578125q1.53125 0.5625 2.4375 2.015625q0.921875 1.4375 0.921875 3.296875q0 2.359375 -1.390625 3.90625q-1.375 1.53125 -4.140625 1.9375q1.375 0.796875 2.265625 1.765625q0.890625 0.953125 2.40625 3.40625l2.5625 4.09375l-5.0625 0l-3.0625 -4.5625q-1.640625 -2.453125 -2.25 -3.09375q-0.59375 -0.640625 -1.265625 -0.875q-0.671875 -0.234375 -2.125 -0.234375l-0.859375 0l0 8.765625l-4.25 0zm4.25 -12.109375l3.125 0q3.0625 0 3.8125 -0.25q0.765625 -0.265625 1.1875 -0.890625q0.4375 -0.640625 0.4375 -1.578125q0 -1.0625 -0.578125 -1.71875q-0.5625 -0.65625 -1.59375 -0.828125q-0.515625 -0.0625 -3.09375 -0.0625l-3.296875 0l0 5.328125zm16.92981 12.109375l0 -21.0l15.5625 0l0 3.5625l-11.328125 0l0 4.65625l10.53125 0l0 3.53125l-10.53125 0l0 5.71875l11.71875 0l0 3.53125l-15.953125 0zm32.42871 0l0 -17.4375l-6.234375 0l0 -3.5625l16.6875 0l0 3.5625l-6.21875 0l0 17.4375l-4.234375 0zm19.784546 -4.84375l4.015625 0.671875q-0.765625 2.203125 -2.4375 3.359375q-1.671875 1.15625 -4.171875 1.15625q-3.96875 0 -5.875 -2.59375q-1.5 -2.078125 -1.5 -5.234375q0 -3.78125 1.96875 -5.921875q1.984375 -2.140625 5.0 -2.140625q3.390625 0 5.34375 2.25q1.96875 2.234375 1.890625 6.859375l-10.078125 0q0.03125 1.78125 0.953125 2.78125q0.9375 1.0 2.328125 1.0q0.953125 0 1.59375 -0.515625q0.640625 -0.515625 0.96875 -1.671875zm0.234375 -4.0625q-0.046875 -1.75 -0.90625 -2.65625q-0.859375 -0.90625 -2.09375 -0.90625q-1.3125 0 -2.171875 0.953125q-0.859375 0.96875 -0.84375 2.609375l6.015625 0zm11.123413 8.90625l-4.015625 0l0 -15.203125l3.734375 0l0 2.15625q0.953125 -1.53125 1.71875 -2.015625q0.765625 -0.484375 1.75 -0.484375q1.375 0 2.640625 0.75l-1.234375 3.515625q-1.03125 -0.65625 -1.890625 -0.65625q-0.859375 0 -1.453125 0.46875q-0.578125 0.453125 -0.921875 1.671875q-0.328125 1.21875 -0.328125 5.09375l0 4.703125zm7.25708 -15.203125l3.71875 0l0 2.078125q1.984375 -2.421875 4.734375 -2.421875q1.46875 0 2.53125 0.609375q1.078125 0.59375 1.765625 1.8125q1.0 -1.21875 2.15625 -1.8125q1.171875 -0.609375 2.484375 -0.609375q1.671875 0 2.828125 0.6875q1.171875 0.671875 1.734375 1.984375q0.421875 0.96875 0.421875 3.15625l0 9.71875l-4.015625 0l0 -8.6875q0 -2.265625 -0.421875 -2.921875q-0.5625 -0.859375 -1.71875 -0.859375q-0.84375 0 -1.59375 0.515625q-0.734375 0.515625 -1.078125 1.515625q-0.328125 0.984375 -0.328125 3.140625l0 7.296875l-4.015625 0l0 -8.328125q0 -2.21875 -0.21875 -2.859375q-0.21875 -0.65625 -0.671875 -0.96875q-0.4375 -0.3125 -1.21875 -0.3125q-0.921875 0 -1.671875 0.5q-0.75 0.5 -1.078125 1.453125q-0.3125 0.9375 -0.3125 3.125l0 7.390625l-4.03125 0l0 -15.203125z" fill-rule="nonzero"/><path fill="#000000" fill-opacity="0.0" d="m268.026 260.06824l77.66928 0" fill-rule="evenodd"/><path stroke="#000000" stroke-width="2.0" stroke-linejoin="round" stroke-linecap="butt" d="m268.026 260.06824l65.66928 0" fill-rule="evenodd"/><path fill="#000000" stroke="#000000" stroke-width="2.0" stroke-linecap="butt" d="m333.69528 263.3717l9.076202 -3.3034668l-9.076202 -3.3034668z" fill-rule="evenodd"/><path fill="#000000" fill-opacity="0.0" d="m541.3777 260.06824l77.66931 0" fill-rule="evenodd"/><path stroke="#000000" stroke-width="2.0" stroke-linejoin="round" stroke-linecap="butt" d="m541.3777 260.06824l65.66931 0" fill-rule="evenodd"/><path fill="#000000" stroke="#000000" stroke-width="2.0" stroke-linecap="butt" d="m607.047 263.3717l9.076172 -3.3034668l-9.076172 -3.3034668z" fill-rule="evenodd"/><path fill="#000000" fill-opacity="0.0" d="m866.509 260.06824l77.66925 0" fill-rule="evenodd"/><path stroke="#000000" stroke-width="2.0" stroke-linejoin="round" stroke-linecap="butt" d="m866.5089 260.06824l65.66931 0" fill-rule="evenodd"/><path fill="#000000" stroke="#000000" stroke-width="2.0" stroke-linecap="butt" d="m932.1782 263.3717l9.076233 -3.3034668l-9.076233 -3.3034668z" fill-rule="evenodd"/><path fill="#000000" fill-opacity="0.0" d="m1139.8606 260.06824l77.66931 0" fill-rule="evenodd"/><path stroke="#000000" stroke-width="2.0" stroke-linejoin="round" stroke-linecap="butt" d="m1139.8606 260.06824l65.66931 0" fill-rule="evenodd"/><path fill="#000000" stroke="#000000" stroke-width="2.0" stroke-linecap="butt" d="m1205.5299 263.3717l9.076172 -3.3034668l-9.076172 -3.3034668z" fill-rule="evenodd"/><path fill="#000000" fill-opacity="0.0" d="m675.0446 202.64568l0 -74.645676" fill-rule="evenodd"/><path stroke="#000000" stroke-width="2.0" stroke-linejoin="round" stroke-linecap="butt" d="m675.0446 190.64568l0 -50.645676" fill-rule="evenodd"/><path fill="#000000" stroke="#000000" stroke-width="2.0" stroke-linecap="butt" d="m671.74115 190.64568l3.3034668 9.076187l3.3034668 -9.076187z" fill-rule="evenodd"/><path fill="#000000" stroke="#000000" stroke-width="2.0" stroke-linecap="butt" d="m678.3481 140.0l-3.3034668 -9.076202l-3.3034668 9.076202z" fill-rule="evenodd"/><path fill="#000000" fill-opacity="0.0" d="m810.5092 202.64568l0 -74.645676" fill-rule="evenodd"/><path stroke="#000000" stroke-width="2.0" stroke-linejoin="round" stroke-linecap="butt" d="m810.5092 190.64568l0 -50.645676" fill-rule="evenodd"/><path fill="#000000" stroke="#000000" stroke-width="2.0" stroke-linecap="butt" d="m807.20575 190.64568l3.3034668 9.076187l3.3034058 -9.076187z" fill-rule="evenodd"/><path fill="#000000" stroke="#000000" stroke-width="2.0" stroke-linecap="butt" d="m813.8126 140.0l-3.3034058 -9.076202l-3.3034668 9.076202z" fill-rule="evenodd"/></g></svg>